<?xml version="1.0" encoding="utf-8"?>
<!-- Generator: Adobe Illustrator 24.0.1, SVG Export Plug-In . SVG Version: 6.00 Build 0)  -->
<svg version="1.1" id="Layer_1" xmlns="http://www.w3.org/2000/svg" xmlns:xlink="http://www.w3.org/1999/xlink" x="0px" y="0px"
	 viewBox="0 0 114.41 68.96" style="enable-background:new 0 0 114.41 68.96;" xml:space="preserve">
<style type="text/css">
	.st0{fill:#0E0F11;}
</style>
<path class="st0" d="M113.31,59.9l-7.96,7.96c-1.47,1.47-3.86,1.47-5.33,0L57.21,25.05L14.4,67.86c-1.47,1.47-3.86,1.47-5.33,0
	L1.1,59.9c-1.47-1.47-1.47-3.86,0-5.33l45.2-45.2c0.08-0.1,0.15-0.21,0.25-0.31l7.96-7.96c0.74-0.74,1.72-1.11,2.69-1.1
	c0.97-0.01,1.95,0.36,2.69,1.1l7.96,7.96c0.09,0.1,0.17,0.2,0.25,0.31l45.2,45.2C114.78,56.04,114.78,58.42,113.31,59.9z"/>
</svg>
