<svg version="1.1" id="arrow-right" xmlns="http://www.w3.org/2000/svg" xmlns:xlink="http://www.w3.org/1999/xlink" x="0px" y="0px"
	 viewBox="0 0 68.96 114.41" style="enable-background:new 0 0 68.96 114.41;" xml:space="preserve">
<style type="text/css">
	.sto-arrow-right{fill:#0E0F11;}
</style>
<path class="sto-arrow-right" d="M9.07,113.31l-7.96-7.96c-1.47-1.47-1.47-3.86,0-5.33l42.81-42.81L1.1,14.4c-1.47-1.47-1.47-3.86,0-5.33
	L9.07,1.1c1.47-1.47,3.86-1.47,5.33,0l45.2,45.2c0.1,0.08,0.21,0.15,0.31,0.25l7.96,7.96c0.74,0.74,1.11,1.72,1.1,2.69
	c0.01,0.97-0.36,1.95-1.1,2.69l-7.96,7.96c-0.1,0.09-0.2,0.17-0.31,0.25l-45.2,45.2C12.92,114.78,10.54,114.78,9.07,113.31z"/>
</svg>
