<svg version="1.1" id="arrow-left" xmlns="http://www.w3.org/2000/svg" xmlns:xlink="http://www.w3.org/1999/xlink" x="0px" y="0px"
	 viewBox="0 0 68.96 114.41" style="enable-background:new 0 0 68.96 114.41;" xml:space="preserve">
<style type="text/css">
	.sto-arrow-left{fill:#0E0F11;}
</style>
<path class="sto-arrow-left" d="M59.9,113.31l7.96-7.96c1.47-1.47,1.47-3.86,0-5.33L25.05,57.21L67.86,14.4c1.47-1.47,1.47-3.86,0-5.33
	L59.9,1.1c-1.47-1.47-3.86-1.47-5.33,0L9.37,46.3c-0.1,0.08-0.21,0.15-0.31,0.25L1.1,54.52c-0.74,0.74-1.11,1.72-1.1,2.69
	c-0.01,0.97,0.36,1.95,1.1,2.69l7.96,7.96c0.1,0.09,0.2,0.17,0.31,0.25l45.2,45.2C56.04,114.78,58.42,114.78,59.9,113.31z"/>
</svg>
