<svg version="1.1" id="arrow_down" xmlns="http://www.w3.org/2000/svg" xmlns:xlink="http://www.w3.org/1999/xlink" x="0px" y="0px"
	 viewBox="0 0 114.41 68.96" style="enable-background:new 0 0 114.41 68.96;" xml:space="preserve">
<style type="text/css">
	.st0-arrow_down{fill:#0E0F11;}
</style>
<path class="st0-arrow_down" d="M113.31,9.07l-7.96-7.96c-1.47-1.47-3.86-1.47-5.33,0L57.21,43.91L14.4,1.1c-1.47-1.47-3.86-1.47-5.33,0
	L1.1,9.07c-1.47,1.47-1.47,3.86,0,5.33l45.2,45.2c0.08,0.1,0.15,0.21,0.25,0.31l7.96,7.96c0.74,0.74,1.72,1.11,2.69,1.1
	c0.97,0.01,1.95-0.36,2.69-1.1l7.96-7.96c0.09-0.1,0.17-0.2,0.25-0.31l45.2-45.2C114.78,12.92,114.78,10.54,113.31,9.07z"/>
</svg>
