<svg id="_841698_Image" data-name="841698 Image" xmlns="http://www.w3.org/2000/svg" viewBox="0 0 971.85 146.68">
  <defs>
    <style>
      .cls-1 {
        fill: #efb832;
      }

      .cls-2 {
        fill: #fff;
      }
    </style>
  </defs>
  <title>fivestar</title>
  <path class="cls-1" d="M116.76,89.43c5.87,17.31,11.28,34,17.28,51.6.45,1.32,1.24,2.45,1.08,3.48a2.91,2.91,0,0,1-2.4,2.16c-1.23.11-2.56-.81-3.6-1.56-5.09-3.65-9.85-7.13-14.88-10.68-1-.74-2-1.38-3.12-2a16.27,16.27,0,0,1-1.56-1c-.27-.22-.37-.52-.6-.72-.62-.54-1.63-.9-2.4-1.44-.47-.33-.85-.84-1.32-1.2-2.86-2.17-6-4.25-9-6.36-2.21-1.56-5.12-3.42-7.68-5.16-.5-.34-.84-.81-1.32-1.2s-2.48-1.9-3.12-1.92c-.8,0-2.12,1.2-3.24,1.92-11.44,7.35-22.44,14.13-34.08,21.48-2.68,1.69-6.07,3.86-9.24,5.88-.94.59-2.22,1.55-3.48,1.32s-2.16-1.27-1.8-3c.06-.27.27-.45.36-.72s0-.66.12-1c.35-1.17.92-2.46,1.2-3.24,1.68-4.65,3-8.48,4.68-13.08,1.94-5.35,3.94-10.72,5.88-16.2.4-1.12.62-2.3,1.08-3.36,1.19-2.75,2.42-6.44,3.6-9.72.49-1.36,1-2.52.6-3.84-.53-1.75-4-3.48-6-4.92-1.07-.76-2.06-1.67-3.12-2.4C28,73.81,15.49,64.51,2.64,55.47c-1.47-1-2.61-1.37-2.64-3,0-2.66,2.47-2.88,5.52-2.88h50.4c2.86,0,7,.49,8.64-.36,1.16-.58,2.21-3.94,2.88-5.76,4.73-12.84,8.74-24.57,13.44-37.8.37-1,.87-2.11,1.2-3.12.4-1.2.76-2.33,2.28-2.52,3.15-.38,3.46,3.4,4.32,6C93.29,20,98.43,34.57,102.84,48.27c.71.25,1,1,1.56,1.32h52.8c2.31,0,5.92-.33,7,.48a3.72,3.72,0,0,1,1.08,2.52c0,1.15-1.36,2.25-2.4,3C147.44,66.7,131.91,78.17,116.76,89.43Z"/>
  <path class="cls-1" d="M305.76,89.43c5.87,17.31,11.28,34,17.28,51.6.45,1.32,1.24,2.45,1.08,3.48a2.91,2.91,0,0,1-2.4,2.16c-1.23.11-2.56-.81-3.6-1.56-5.09-3.65-9.85-7.13-14.88-10.68-1-.74-2.05-1.38-3.12-2a16.27,16.27,0,0,1-1.56-1c-.27-.22-.37-.52-.6-.72-.62-.54-1.63-.9-2.4-1.44-.47-.33-.85-.84-1.32-1.2-2.86-2.17-6-4.25-9-6.36-2.21-1.56-5.12-3.42-7.68-5.16-.5-.34-.84-.81-1.32-1.2s-2.48-1.9-3.12-1.92c-.8,0-2.12,1.2-3.24,1.92-11.44,7.35-22.44,14.13-34.08,21.48-2.68,1.69-6.07,3.86-9.24,5.88-.94.59-2.22,1.55-3.48,1.32-1.41-.26-2.16-1.27-1.8-3,.06-.27.27-.45.36-.72s0-.66.12-1c.35-1.17.92-2.46,1.2-3.24,1.68-4.65,3-8.48,4.68-13.08,1.94-5.35,3.94-10.72,5.88-16.2.4-1.12.62-2.3,1.08-3.36,1.19-2.75,2.42-6.44,3.6-9.72.49-1.36,1-2.52.6-3.84-.53-1.75-4-3.48-6-4.92-1.07-.76-2.06-1.67-3.12-2.4-12.68-8.78-25.19-18.08-38-27.12-1.47-1-2.61-1.37-2.64-3-.05-2.66,2.47-2.88,5.52-2.88h50.4c2.86,0,7,.49,8.64-.36,1.16-.58,2.21-3.94,2.88-5.76,4.73-12.84,8.74-24.57,13.44-37.8.37-1,.87-2.11,1.2-3.12.4-1.2.76-2.33,2.28-2.52,3.15-.38,3.46,3.4,4.32,6,4.61,13.93,9.75,28.54,14.16,42.24.71.25,1,1,1.56,1.32h52.8c2.31,0,5.92-.33,7,.48a3.72,3.72,0,0,1,1.08,2.52c0,1.15-1.36,2.25-2.4,3C336.44,66.7,320.91,78.17,305.76,89.43Z"/>
  <path class="cls-1" d="M493.76,89.43c5.87,17.31,11.28,34,17.28,51.6.45,1.32,1.24,2.45,1.08,3.48a2.91,2.91,0,0,1-2.4,2.16c-1.23.11-2.56-.81-3.6-1.56-5.09-3.65-9.85-7.13-14.88-10.68-1-.74-2.05-1.38-3.12-2a16.27,16.27,0,0,1-1.56-1c-.27-.22-.37-.52-.6-.72-.62-.54-1.63-.9-2.4-1.44-.47-.33-.85-.84-1.32-1.2-2.86-2.17-6-4.25-9-6.36-2.21-1.56-5.12-3.42-7.68-5.16-.5-.34-.84-.81-1.32-1.2s-2.48-1.9-3.12-1.92c-.8,0-2.12,1.2-3.24,1.92-11.44,7.35-22.44,14.13-34.08,21.48-2.68,1.69-6.07,3.86-9.24,5.88-.94.59-2.22,1.55-3.48,1.32s-2.16-1.27-1.8-3c.06-.27.27-.45.36-.72s0-.66.12-1c.35-1.17.92-2.46,1.2-3.24,1.68-4.65,3-8.48,4.68-13.08,1.94-5.35,3.94-10.72,5.88-16.2.4-1.12.62-2.3,1.08-3.36,1.19-2.75,2.42-6.44,3.6-9.72.49-1.36,1-2.52.6-3.84-.53-1.75-4-3.48-6-4.92-1.07-.76-2.06-1.67-3.12-2.4-12.68-8.78-25.19-18.08-38-27.12-1.47-1-2.61-1.37-2.64-3-.05-2.66,2.47-2.88,5.52-2.88h50.4c2.86,0,7,.49,8.64-.36,1.16-.58,2.21-3.94,2.88-5.76,4.73-12.84,8.74-24.57,13.44-37.8.37-1,.87-2.11,1.2-3.12.4-1.2.76-2.33,2.28-2.52,3.15-.38,3.46,3.4,4.32,6,4.61,13.93,9.75,28.54,14.16,42.24.71.25,1,1,1.56,1.32h52.8c2.31,0,5.92-.33,7,.48a3.72,3.72,0,0,1,1.08,2.52c0,1.15-1.36,2.25-2.4,3C524.44,66.7,508.91,78.17,493.76,89.43Z"/>
  <path class="cls-1" d="M682.76,89.43c5.87,17.31,11.28,34,17.28,51.6.45,1.32,1.24,2.45,1.08,3.48a2.91,2.91,0,0,1-2.4,2.16c-1.23.11-2.56-.81-3.6-1.56-5.09-3.65-9.85-7.13-14.88-10.68-1-.74-2-1.38-3.12-2a16.27,16.27,0,0,1-1.56-1c-.27-.22-.37-.52-.6-.72-.62-.54-1.63-.9-2.4-1.44-.47-.33-.85-.84-1.32-1.2-2.86-2.17-6-4.25-9-6.36-2.21-1.56-5.12-3.42-7.68-5.16-.5-.34-.84-.81-1.32-1.2s-2.48-1.9-3.12-1.92c-.8,0-2.12,1.2-3.24,1.92-11.44,7.35-22.44,14.13-34.08,21.48-2.68,1.69-6.07,3.86-9.24,5.88-.94.59-2.22,1.55-3.48,1.32-1.41-.26-2.16-1.27-1.8-3,.06-.27.27-.45.36-.72s0-.66.12-1c.35-1.17.92-2.46,1.2-3.24,1.68-4.65,3-8.48,4.68-13.08,1.94-5.35,3.94-10.72,5.88-16.2.4-1.12.62-2.3,1.08-3.36,1.19-2.75,2.42-6.44,3.6-9.72.49-1.36,1-2.52.6-3.84-.53-1.75-4-3.48-6-4.92-1.07-.76-2.06-1.67-3.12-2.4-12.68-8.78-25.19-18.08-38-27.12-1.47-1-2.61-1.37-2.64-3,0-2.66,2.47-2.88,5.52-2.88h50.4c2.86,0,7,.49,8.64-.36,1.16-.58,2.21-3.94,2.88-5.76,4.73-12.84,8.74-24.57,13.44-37.8.37-1,.87-2.11,1.2-3.12.4-1.2.76-2.33,2.28-2.52,3.15-.38,3.46,3.4,4.32,6,4.61,13.93,9.75,28.54,14.16,42.24.71.25.95,1,1.56,1.32h52.8c2.31,0,5.92-.33,7,.48a3.72,3.72,0,0,1,1.08,2.52c0,1.15-1.36,2.25-2.4,3C713.44,66.7,697.91,78.17,682.76,89.43Z"/>
  <path class="cls-1" d="M839.12,113.43c-.8,0-2.12,1.2-3.24,1.92-11.44,7.35-22.44,14.13-34.08,21.48-2.68,1.69-6.07,3.86-9.24,5.88-.94.59-2.22,1.55-3.48,1.32-1.41-.26-2.16-1.27-1.8-3,.06-.27.27-.45.36-.72s0-.66.12-1c.35-1.17.92-2.46,1.2-3.24,1.68-4.65,3-8.48,4.68-13.08,1.94-5.35,3.94-10.72,5.88-16.2.4-1.12.62-2.3,1.08-3.36,1.19-2.75,2.42-6.44,3.6-9.72.49-1.36,1-2.52.6-3.84-.53-1.75-4-3.48-6-4.92-1.07-.76-2.06-1.67-3.12-2.4-12.68-8.78-25.19-18.08-38-27.12-1.47-1-2.61-1.37-2.64-3,0-2.66,2.47-2.88,5.52-2.88h50.4c2.86,0,7,.49,8.64-.36,1.16-.58,2.21-3.94,2.88-5.76,4.73-12.84,8.74-24.57,13.44-37.8.37-1,.87-2.11,1.2-3.12.4-1.2.76-2.33,2.28-2.52"/>
  <path class="cls-2" d="M839.36,0c3.15-.38,3.46,3.4,4.32,6,4.61,13.93,9.75,28.54,14.16,42.24.71.25.95,1,1.56,1.32h52.8c2.31,0,5.92-.33,7,.48a3.72,3.72,0,0,1,1.08,2.52c0,1.15-1.36,2.25-2.4,3-15.4,11.11-30.93,22.58-46.08,33.84,5.87,17.31,11.28,34,17.28,51.6.45,1.32,1.24,2.45,1.08,3.48a2.91,2.91,0,0,1-2.4,2.16c-1.23.11-2.56-.81-3.6-1.56-5.09-3.65-9.85-7.13-14.88-10.68-1-.74-2-1.38-3.12-2a16.27,16.27,0,0,1-1.56-1c-.27-.22-.37-.52-.6-.72-.62-.54-1.63-.9-2.4-1.44-.47-.33-.85-.84-1.32-1.2-2.86-2.17-6-4.25-9-6.36-2.21-1.56-5.12-3.42-7.68-5.16-.5-.34-.84-.81-1.32-1.2s-2.48-1.9-3.12-1.92"/>
</svg>
