<svg id="_841698_Image" data-name="841698 Image" xmlns="http://www.w3.org/2000/svg" viewBox="0 0 960.24 146.68">
  <defs>
    <style>
      .cls-1 {
        fill: #efb832;
      }

      .cls-2 {
        fill: #fff;
      }
    </style>
  </defs>
  <title>fivestar-3</title>
  <path class="cls-1" d="M116.76,89.43c5.87,17.31,11.28,34,17.28,51.6.45,1.32,1.24,2.45,1.08,3.48a2.91,2.91,0,0,1-2.4,2.16c-1.23.11-2.56-.81-3.6-1.56-5.09-3.65-9.85-7.13-14.88-10.68-1-.74-2-1.38-3.12-2a16.27,16.27,0,0,1-1.56-1c-.27-.22-.37-.52-.6-.72-.62-.54-1.63-.9-2.4-1.44-.47-.33-.85-.84-1.32-1.2-2.86-2.17-6-4.25-9-6.36-2.21-1.56-5.12-3.42-7.68-5.16-.5-.34-.84-.81-1.32-1.2s-2.48-1.9-3.12-1.92c-.8,0-2.12,1.2-3.24,1.92-11.44,7.35-22.44,14.13-34.08,21.48-2.68,1.69-6.07,3.86-9.24,5.88-.94.59-2.22,1.55-3.48,1.32s-2.16-1.27-1.8-3c.06-.27.27-.45.36-.72s0-.66.12-1c.35-1.17.92-2.46,1.2-3.24,1.68-4.65,3-8.48,4.68-13.08,1.94-5.35,3.94-10.72,5.88-16.2.4-1.12.62-2.3,1.08-3.36,1.19-2.75,2.42-6.44,3.6-9.72.49-1.36,1-2.52.6-3.84-.53-1.75-4-3.48-6-4.92-1.07-.76-2.06-1.67-3.12-2.4C28,73.81,15.49,64.51,2.64,55.47c-1.47-1-2.61-1.37-2.64-3,0-2.66,2.47-2.88,5.52-2.88h50.4c2.86,0,7,.49,8.64-.36,1.16-.58,2.21-3.94,2.88-5.76,4.73-12.84,8.74-24.57,13.44-37.8.37-1,.87-2.11,1.2-3.12.4-1.2.76-2.33,2.28-2.52,3.15-.38,3.46,3.4,4.32,6C93.29,20,98.43,34.57,102.84,48.27c.71.25,1,1,1.56,1.32h52.8c2.31,0,5.92-.33,7,.48a3.72,3.72,0,0,1,1.08,2.52c0,1.15-1.36,2.25-2.4,3C147.44,66.7,131.91,78.17,116.76,89.43Z" transform="translate(0 0)"/>
  <path class="cls-1" d="M315.76,89.43c5.87,17.31,11.28,34,17.28,51.6.45,1.32,1.24,2.45,1.08,3.48a2.91,2.91,0,0,1-2.4,2.16c-1.23.11-2.56-.81-3.6-1.56-5.09-3.65-9.85-7.13-14.88-10.68-1-.74-2.05-1.38-3.12-2a16.27,16.27,0,0,1-1.56-1c-.27-.22-.37-.52-.6-.72-.62-.54-1.63-.9-2.4-1.44-.47-.33-.85-.84-1.32-1.2-2.86-2.17-6-4.25-9-6.36-2.21-1.56-5.12-3.42-7.68-5.16-.5-.34-.84-.81-1.32-1.2s-2.48-1.9-3.12-1.92c-.8,0-2.12,1.2-3.24,1.92-11.44,7.35-22.44,14.13-34.08,21.48-2.68,1.69-6.07,3.86-9.24,5.88-.94.59-2.22,1.55-3.48,1.32-1.41-.26-2.16-1.27-1.8-3,.06-.27.27-.45.36-.72s0-.66.12-1c.35-1.17.92-2.46,1.2-3.24,1.68-4.65,3-8.48,4.68-13.08,1.94-5.35,3.94-10.72,5.88-16.2.4-1.12.62-2.3,1.08-3.36,1.19-2.75,2.42-6.44,3.6-9.72.49-1.36,1-2.52.6-3.84-.53-1.75-4-3.48-6-4.92-1.07-.76-2.06-1.67-3.12-2.4-12.68-8.78-25.19-18.08-38-27.12-1.47-1-2.61-1.37-2.64-3-.05-2.66,2.47-2.88,5.52-2.88h50.4c2.86,0,7,.49,8.64-.36,1.16-.58,2.21-3.94,2.88-5.76,4.73-12.84,8.74-24.57,13.44-37.8.37-1,.87-2.11,1.2-3.12.4-1.2.76-2.33,2.28-2.52,3.15-.38,3.46,3.4,4.32,6,4.61,13.93,9.75,28.54,14.16,42.24.71.25,1,1,1.56,1.32h52.8c2.31,0,5.92-.33,7,.48a3.72,3.72,0,0,1,1.08,2.52c0,1.15-1.36,2.25-2.4,3C346.44,66.7,330.91,78.17,315.76,89.43Z" transform="translate(0 0)"/>
  <path class="cls-1" d="M513.76,89.43c5.87,17.31,11.28,34,17.28,51.6.45,1.32,1.24,2.45,1.08,3.48a2.91,2.91,0,0,1-2.4,2.16c-1.23.11-2.56-.81-3.6-1.56-5.09-3.65-9.85-7.13-14.88-10.68-1-.74-2.05-1.38-3.12-2a16.27,16.27,0,0,1-1.56-1c-.27-.22-.37-.52-.6-.72-.62-.54-1.63-.9-2.4-1.44-.47-.33-.85-.84-1.32-1.2-2.86-2.17-6-4.25-9-6.36-2.21-1.56-5.12-3.42-7.68-5.16-.5-.34-.84-.81-1.32-1.2s-2.48-1.9-3.12-1.92c-.8,0-2.12,1.2-3.24,1.92-11.44,7.35-22.44,14.13-34.08,21.48-2.68,1.69-6.07,3.86-9.24,5.88-.94.59-2.22,1.55-3.48,1.32s-2.16-1.27-1.8-3c.06-.27.27-.45.36-.72s0-.66.12-1c.35-1.17.92-2.46,1.2-3.24,1.68-4.65,3-8.48,4.68-13.08,1.94-5.35,3.94-10.72,5.88-16.2.4-1.12.62-2.3,1.08-3.36,1.19-2.75,2.42-6.44,3.6-9.72.49-1.36,1-2.52.6-3.84-.53-1.75-4-3.48-6-4.92-1.07-.76-2.06-1.67-3.12-2.4-12.68-8.78-25.19-18.08-38-27.12-1.47-1-2.61-1.37-2.64-3-.05-2.66,2.47-2.88,5.52-2.88h50.4c2.86,0,7,.49,8.64-.36,1.16-.58,2.21-3.94,2.88-5.76,4.73-12.84,8.74-24.57,13.44-37.8.37-1,.87-2.11,1.2-3.12.4-1.2.76-2.33,2.28-2.52,3.15-.38,3.46,3.4,4.32,6,4.61,13.93,9.75,28.54,14.16,42.24.71.25,1,1,1.56,1.32h52.8c2.31,0,5.92-.33,7,.48a3.72,3.72,0,0,1,1.08,2.52c0,1.15-1.36,2.25-2.4,3C544.44,66.7,528.91,78.17,513.76,89.43Z" transform="translate(0 0)"/>
  <path class="cls-1" d="M712.76,89.43c5.87,17.31,11.28,34,17.28,51.6.45,1.32,1.24,2.45,1.08,3.48a2.91,2.91,0,0,1-2.4,2.16c-1.23.11-2.56-.81-3.6-1.56-5.09-3.65-9.85-7.13-14.88-10.68-1-.74-2-1.38-3.12-2a16.27,16.27,0,0,1-1.56-1c-.27-.22-.37-.52-.6-.72-.62-.54-1.63-.9-2.4-1.44-.47-.33-.85-.84-1.32-1.2-2.86-2.17-6-4.25-9-6.36-2.21-1.56-5.12-3.42-7.68-5.16-.5-.34-.84-.81-1.32-1.2s-2.48-1.9-3.12-1.92c-.8,0-2.12,1.2-3.24,1.92-11.44,7.35-22.44,14.13-34.08,21.48-2.68,1.69-6.07,3.86-9.24,5.88-.94.59-2.22,1.55-3.48,1.32-1.41-.26-2.16-1.27-1.8-3,.06-.27.27-.45.36-.72s0-.66.12-1c.35-1.17.92-2.46,1.2-3.24,1.68-4.65,3-8.48,4.68-13.08,1.94-5.35,3.94-10.72,5.88-16.2.4-1.12.62-2.3,1.08-3.36,1.19-2.75,2.42-6.44,3.6-9.72.49-1.36,1-2.52.6-3.84-.53-1.75-4-3.48-6-4.92-1.07-.76-2.06-1.67-3.12-2.4-12.68-8.78-25.19-18.08-38-27.12-1.47-1-2.61-1.37-2.64-3,0-2.66,2.47-2.88,5.52-2.88h50.4c2.86,0,7,.49,8.64-.36,1.16-.58,2.21-3.94,2.88-5.76,4.73-12.84,8.74-24.57,13.44-37.8.37-1,.87-2.11,1.2-3.12.4-1.2.76-2.33,2.28-2.52,3.15-.38,3.46,3.4,4.32,6,4.61,13.93,9.75,28.54,14.16,42.24.71.25.95,1,1.56,1.32h52.8c2.31,0,5.92-.33,7,.48a3.72,3.72,0,0,1,1.08,2.52c0,1.15-1.36,2.25-2.4,3C743.44,66.7,727.91,78.17,712.76,89.43Z" transform="translate(0 0)"/>
  <g>
    <path class="cls-1" d="M877.08,2.55c-.33,1-.83,2.07-1.2,3.12-4.7,13.23-8.71,25-13.44,37.8-.67,1.82-1.72,5.18-2.88,5.76-1.68.85-5.78.36-8.64.36h-50.4c-3,0-5.57.22-5.52,2.88,0,1.63,1.17,2,2.64,3,12.85,9,25.36,18.34,38,27.12,1.06.73,2.05,1.64,3.12,2.4,2,1.44,5.47,3.17,6,4.92.4,1.32-.11,2.48-.6,3.84-1.18,3.28-2.41,7-3.6,9.72-.46,1.06-.68,2.24-1.08,3.36-1.94,5.48-3.94,10.85-5.88,16.2-1.67,4.6-3,8.43-4.68,13.08-.28.78-.85,2.07-1.2,3.24-.09.3,0,.63-.12,1s-.3.45-.36.72c-.36,1.73.39,2.74,1.8,3,1.26.23,2.54-.73,3.48-1.32,3.17-2,6.56-4.19,9.24-5.88,11.64-7.35,22.64-14.13,34.08-21.48,1.12-.72,2.44-1.94,3.24-1.92L879.36,0C877.84.22,877.48,1.35,877.08,2.55Z" transform="translate(0 0)"/>
    <path class="cls-2" d="M959.16,50.07c-1-.81-4.65-.48-7-.48H899.4c-.61-.35-.85-1.07-1.56-1.32C893.43,34.57,888.29,20,883.68,6c-.86-2.6-1.17-6.38-4.32-6l-.24,113.4c.64,0,2.57,1.47,3.12,1.92s.82.86,1.32,1.2c2.56,1.74,5.47,3.6,7.68,5.16,3,2.11,6.14,4.19,9,6.36.47.36.85.87,1.32,1.2.77.54,1.78.9,2.4,1.44.23.2.33.5.6.72a16.27,16.27,0,0,0,1.56,1c1.07.66,2.08,1.3,3.12,2,5,3.55,9.79,7,14.88,10.68,1,.75,2.37,1.67,3.6,1.56a2.91,2.91,0,0,0,2.4-2.16c.16-1-.63-2.16-1.08-3.48-6-17.62-11.41-34.29-17.28-51.6,15.15-11.26,30.68-22.73,46.08-33.84,1-.75,2.36-1.85,2.4-3A3.72,3.72,0,0,0,959.16,50.07Z" transform="translate(0 0)"/>
  </g>
</svg>
