<svg enable-background="new 0 0 61.62 60.93" height="60.93" viewBox="0 0 61.62 60.93" width="61.62" xmlns="http://www.w3.org/2000/svg"><path d="m61.37 31.34c-.03-.08-.06-.15-.09-.23.06-.36.08-.67.09-.87l.01-.19c.11-1.23.02-2.28-.27-3.12-.13-.39-.25-.71-.39-1.02-.18-.41-.39-.75-.54-1l-.75.45.69-.54-.09-.16c-.27-.49-.58-1.01-1.02-1.51l-.06-.1c-.02-.28-.03-.63-.03-1.09s-.01-.89-.04-1.34c-.01-.15-.03-.3-.04-.45-.02-.16-.03-.24-.03-.32 0-.17 0-.35 0-.53.01-.87.03-1.96-.39-3.01-.32-.79-.8-1.4-1.48-1.89l-.11-.08c-.32-.23-.8-.58-1.4-.84l-.08-.03c-.47-.26-.85-.43-1.19-.58l-.29-.13c-.23-.1-.46-.21-.69-.3-.54-.22-1.22-.49-1.98-.67-.63-.15-1.32-.18-2-.1-.56.07-1.07.23-1.6.53-.07 0-.14.01-.21.02-.45.05-.77.19-.88.23l-.13.05-.34-.09c-.14-.04-.24-.06-.35-.09-.38-.08-.71-.09-.93-.09h-.12c-.62 0-1.3.03-2 .28-.07.03-.14.05-.22.08-.1-.06-.2-.12-.3-.18-.63-.36-1.44-.71-2.68-.58h-.03c-.45-.2-.99-.41-1.67-.52-.15-.02-.3-.04-.44-.06-.08-.05-.17-.1-.26-.14-.29-.15-.68-.36-1.19-.49-.38-.09-.77-.11-1.08-.1 0-.38-.01-.74-.02-1.1-.02-.82-.03-1.58 0-2.31.01-.22 0-.43-.02-.6l-.01-.08c0-.07 0-.12 0-.15.04-.37.03-.66.02-.93v-.29c0-.51.01-1.09-.04-1.59-.01-.36-.02-.9-.27-1.5-.18-.47-.99-1.99-3.15-1.99-.14 0-.28.01-.39.01-.18.01-.31.01-.44.01h-.59-.39c-.39.01-.77.01-1.16.02h-.19c-.5.01-1 .01-1.5.02h-.2c-.36.01-.72.01-1.09.01-.53 0-1.08.01-1.62.03-.06 0-.12 0-.17 0-.01 0-.02 0-.03 0h-.66c-.2 0-.39 0-.6.02-.15.01-.31.01-.46.01h-.75c-.14 0-.28 0-.49.01-.09 0-.15.01-.2.01h-.38c-.25 0-.46.01-.64.03-.7.07-1.37.35-1.88.79-.78.68-1.17 1.67-1.09 2.8l-.01.16c-.06 1.25-.09 2.51-.11 3.73l-.04.91c-.01.28-.02.57-.03.85l-.01.38c-.02.47-.03.94-.04 1.4-.01.86-.04 1.71-.08 2.52-.02.52-.03 1.04-.04 1.57-.01.41-.01.74-.03 1.08-.02.54-.03 1.09-.04 1.64v.11c-.02.72-.03 1.44-.06 2.16-.02.46-.03.92-.05 1.39h-10.51c-.35 0-.86 0-1.34.03-.42.01-1.06.04-1.73.36-.1.05-.21.11-.23.13-.31.16-.56.34-.79.54-.68.62-1.09 1.48-1.18 2.46-.02.19-.05.48-.03.83.06.88.46 1.73 1.14 2.4.17.17.36.34.56.48.34 1.29.98 2.3 1.87 2.97.43.36.85.6 1.18.79l.24.14c.2.12.39.23.6.34l.25.13c.11.06.22.11.3.16.1.15.27.46.38.65l.24.54c.1.25.18.5.26.75l.1.3c.07.32.15.62.27 1.02l.06.22c.11.38.22.74.34 1.08l.04.14c.06.19.15.44.27.71.63 1.34 1.76 1.99 2.44 2.38l.05.02c.17.12.27.19.38.25l.37.22c.15.09.27.16.37.22-.01 0-.01 0 .01.01h.01s.01 0 .01.01l-.01.01.23.23c.36.41.71.74.95.97.22.21.52.5.96.75.73.42 1.42.51 1.87.54.56.04 1.1-.01 1.61-.14.6-.15 1.01-.4 1.18-.51l.1-.05c.2-.1.37-.18.53-.28.37-.22.64-.46.82-.62.13-.12.22-.2.3-.28l.13-.12c.27-.24.49-.47.68-.67.15-.16.24-.26.31-.31 0 0 .09-.06.29-.14l.09-.04c.04-.02.08-.03.13-.05h.08c.16.06.33.15.56.28l.4.22c.18.09.31.17.44.24.09.05.17.12.27.19.21.15.39.28.54.38.02.02.12.13.4.63.2.35.35.81.48 1.4.12.54.28 1.04.42 1.47.18.56.41 1.09.69 1.58.17.31.43.73.85 1.13.29.28.56.48.78.63l.13.09c.11.08.22.16.34.24l.07.09c.18.22.35.44.53.63.42.46.85.71 1.11.86.04.02.07.04.11.06.03.09.07.19.1.29.11.32.23.65.37.98.04.09.08.19.12.3.21.53.48 1.2.92 1.8.73 1.01 1.63 1.71 2.25 2.15.26.19.46.32.68.45l.88.5c.38.23.78.46 1.22.67.68.34 1.41.59 2.28.81l.55.15c.14.04.28.07.42.1l.22.05c.09.02.19.05.28.08.23.07.41.12.58.17.29.07.4.1.39.1l.1.05.74.37c.15.08.31.15.47.2.49.24.97.35 1.46.35 1.76 0 3.16-1.32 3.32-3.14.08-.86-.08-1.55-.2-1.98-.1-.34-.22-.63-.32-.88l-.06-.15c-.1-.24-.2-.47-.31-.7-.09-.2-.18-.39-.22-.53-.08-.26-.14-.89-.19-1.39-.02-.27-.04-.48-.07-.68-.02-.17-.04-.34-.08-.57-.02-.12-.03-.21-.04-.29-.01-.07 0-.18 0-.29.03-.08.08-.2.14-.32.12-.29.3-.68.42-1.15.11-.41.18-.83.23-1.15.05-.3.08-.62.11-.98.05-.1.11-.21.16-.32.24-.19.46-.39.72-.62.27-.24.51-.49.75-.74l.2-.1c.34-.17.73-.36 1.12-.61l.15-.09c.23-.15.49-.31.77-.54.17-.14.34-.27.51-.41.09-.07.19-.14.29-.21.26-.18.45-.31.63-.45.12-.09.24-.2.33-.28.08-.07.16-.12.26-.21l.31-.24c.17-.13.29-.23.39-.32l.4-.28c.25-.17.48-.33.7-.45.37-.21.67-.41.97-.63.16-.12.42-.32.68-.61.48-.06.93-.16 1.34-.3.94-.33 1.79-.95 2.45-1.79.28-.29.69-.76.96-1.41.2-.5.3-.97.36-1.32.03-.15.05-.23.07-.31.1-.4.23-.95.25-1.6-.02-.53-.1-1.05-.28-1.55zm-5.76 4.83c-.36.03-.69.1-1 .22s-.56.31-.81.62l-.23.29c-.03.04-.1.09-.16.14-.19.14-.37.26-.61.4-.33.19-.64.4-.94.6l-.3.21-.41.31c-.06.05-.12.1-.19.15l-.35.27c-.11.08-.22.17-.37.29l-.12.11c-.03.03-.07.06-.1.09-.14.1-.28.2-.48.34-.15.1-.3.21-.44.32-.21.16-.41.32-.6.48-.14.11-.28.2-.44.31l-.13.08c-.23.15-.48.27-.8.43-.18.09-.36.18-.54.28-.17.1-.3.18-.42.29-.06.06-.12.12-.19.21l-.08.09c-.13.14-.31.33-.5.5-.34.3-.66.58-1.01.83l-.09.06-.23.31c-.05.11-.1.22-.16.37-.05.13-.1.25-.17.36l-.06.09c-.16.27-.26.54-.3.82l-.01.27c-.01.32-.04.61-.08.87-.04.23-.09.53-.16.79-.06.23-.15.43-.26.67s-.22.5-.3.78c-.07.22-.11.35-.11.51l-.01.19c-.01.27-.02.55.01.85.02.16.04.32.07.52.02.13.04.26.05.39.02.21.04.43.06.65.07.73.13 1.48.34 2.11.1.31.23.6.38.92.08.18.16.36.24.54l.07.17c.08.18.15.35.19.51.05.18.09.34.08.56l-.13-.04c-.1-.05-.19-.1-.29-.14l-.42-.21c-.11-.06-.22-.12-.35-.18-.26-.11-.53-.19-.85-.27-.19-.05-.32-.09-.48-.14l-.11-.03c-.13-.04-.25-.08-.38-.11l-.36-.08c-.08-.02-.16-.04-.25-.06l-.15-.04c-.16-.04-.31-.08-.45-.12-.63-.16-1.13-.33-1.58-.55-.36-.18-.66-.34-.93-.52-.09-.06-.19-.11-.27-.15l-.64-.4c-.12-.07-.22-.14-.34-.23-.48-.34-1.09-.81-1.51-1.39-.18-.25-.33-.62-.48-1-.06-.15-.12-.31-.19-.46-.1-.23-.19-.49-.29-.78-.1-.3-.21-.6-.33-.86-.29-.62-.84-.99-1.38-1.3-.13-.08-.25-.15-.32-.22-.12-.13-.24-.28-.39-.47-.09-.12-.19-.23-.28-.35-.08-.09-.17-.19-.26-.26-.05-.04-.1-.07-.19-.12l-.08-.04c-.09-.06-.17-.12-.26-.18l-.17-.12c-.16-.11-.27-.2-.36-.28s-.16-.21-.22-.31c-.16-.3-.31-.62-.42-.97-.12-.37-.24-.73-.32-1.12-.2-.94-.47-1.69-.84-2.36-.36-.64-.8-1.37-1.51-1.83-.12-.08-.24-.17-.41-.29-.16-.11-.32-.23-.5-.35-.2-.12-.41-.24-.65-.36l-.35-.19c-.33-.18-.67-.37-1.09-.52-.34-.12-.79-.26-1.26-.26-.08 0-.15 0-.21.01-.47.05-.86.21-1.21.35-.49.2-.89.42-1.17.64-.29.22-.52.46-.73.69-.14.15-.28.3-.46.45l-.38.34c-.13.11-.23.21-.35.28-.07.04-.15.08-.28.14l-.38.21c-.09.06-.15.09-.2.1-.17.04-.34.06-.51.04-.25-.02-.33-.05-.39-.09-.07-.04-.14-.11-.23-.19l-.09-.08c-.2-.19-.47-.44-.71-.72-.04-.05-.09-.1-.2-.21l-.14-.14c-.15-.15-.33-.34-.56-.49-.2-.12-.4-.24-.61-.36l-.81-.5c-.41-.24-.84-.48-1-.81-.05-.1-.08-.21-.12-.34l-.06-.17c-.11-.31-.2-.63-.31-.99l-.04-.15c-.1-.33-.17-.59-.23-.86-.02-.09-.05-.17-.08-.25l-.1-.29c-.11-.32-.21-.62-.32-.91l-.08-.23c-.05-.13-.1-.27-.16-.38l-.2-.36c-.3-.56-.61-1.14-1.09-1.59-.28-.27-.66-.46-1.02-.64l-.27-.14c-.14-.08-.29-.16-.44-.25l-.27-.16c-.27-.16-.49-.29-.73-.49-.34-.26-.56-.65-.7-1.25-.06-.25-.14-.47-.23-.67-.12-.26-.2-.44-.33-.59-.16-.2-.37-.32-.56-.44-.11-.07-.22-.15-.33-.26-.08-.08-.11-.15-.12-.17 0-.05.01-.11.01-.18.02-.22.07-.28.11-.3l.13-.07c.07-.01.18-.01.26-.02l.16-.01c.39-.02.82-.03 1.16-.03h13.92l.03-.97c0-.08 0-.16 0-.27 0-.08 0-.16 0-.24.02-.45.03-.9.04-1.35.02-.64.03-1.28.06-1.91.03-.71.05-1.43.07-2.22.01-.57.03-1.14.05-1.71.01-.38.02-.77.03-1.16.01-.49.02-.97.04-1.45.04-.83.06-1.69.08-2.63.01-.49.02-.98.04-1.48v-.1c.01-.34.02-.68.03-1.02l.02-.93c.03-1.18.05-2.4.11-3.69.01-.15.01-.27.01-.38h.1.37c.09 0 .19 0 .28-.01h.1c.11 0 .21-.01.31-.01h.75c.22 0 .45 0 .68-.02.13-.01.26-.01.38-.01h.65c.12 0 .24 0 .36-.01.52-.02 1.04-.02 1.64-.03h.13c.36 0 .72 0 1.07-.01.39-.01.77-.01 1.16-.02h.19c.5-.01 1-.01 1.49-.02h.33.58c.18 0 .36 0 .57-.01.09-.01.15-.01.2-.01v.02c0 .07 0 .15.01.22.04.41.03.9.03 1.33v.33.18c0 .1.01.2 0 .29-.02.2-.03.39-.03.6 0 .1.01.19.01.29.01.08.01.17.01.26-.03.81-.01 1.67 0 2.5.01.5.02.99.02 1.47v.26.33.19c0 .16.01.3.04.44.09.41.36.64.56.81.04.04.09.07.14.12.11.11.24.22.36.32l.24.21c.27.25.58.53 1.08.54.15 0 .28-.03.41-.06l.37-.07c.35-.07.51-.06.56-.05.08.02.21.09.3.14.15.08.23.13.35.21.11.08.23.15.38.23.21.09.41.11.67.12.13.01.29.02.45.05.4.06.76.24 1.12.41l.51.23h.21c.25-.01.44-.04.69-.08l.19-.03c.15-.02.24.01.47.14s.45.28.62.38c.3.2.6.33.88.39.63.14 1.21-.11 1.59-.28.11-.05.22-.1.32-.13.2-.07.45-.08.78-.08h.21.14l.47.12c.27.07.55.14.91.2.16.02.34.03.6-.01.16-.03.28-.09.39-.14l.09-.04c.09-.04.17-.07.34-.13.05-.02.09-.04.09-.04l.6.05.23-.13c.15-.06.29-.13.45-.23.2-.13.35-.21.52-.23.27-.03.54-.02.78.04.49.11.98.31 1.43.49.23.09.41.17.59.26l.31.14c.3.13.61.27.9.44.08.05.14.08.19.1l.23.09c.3.13.53.3.8.5l.11.08c.14.1.21.19.29.37.16.39.15.99.14 1.64l-.01.6c0 .21.02.43.05.67.01.11.02.23.03.34.03.35.03.74.03 1.13 0 .46.01.94.05 1.4.01.1.02.19.04.27.01.06.02.13.03.17l.02.19c.06.36.22.62.32.76.11.17.18.28.25.37.06.09.12.16.21.25l.08.09c.21.24.39.55.56.85.06.12.13.23.21.36.12.2.24.4.34.61.1.22.18.44.27.72.13.37.16.98.1 1.71l-.04.23c-.01.22-.03.43-.07.63-.08.35-.16.71-.01 1.18.06.19.09.29.14.41l.06.14c.03.06.06.12.08.19.02.06.04.13.04.27-.01.28-.07.54-.15.85-.03.13-.06.27-.09.4-.06.31-.11.56-.18.74-.04.09-.14.2-.23.3s-.19.2-.28.32c-.22.28-.51.49-.83.6-.2.07-.45.12-.75.14zm-43.86 5.76s-.01 0-.01-.01l.11-.09z"/></svg>