<svg enable-background="new 0 0 44.75 44.75" height="44.75" viewBox="0 0 44.75 44.75" width="44.75" xmlns="http://www.w3.org/2000/svg"><circle cx="9.44" cy="32.38" r="1.5"/><circle cx="6.44" cy="26.38" r="1.5"/><circle cx="6.44" cy="19.38" r="1.5"/><circle cx="7.44" cy="12.38" r="1.5"/><circle cx="37.44" cy="12.38" r="1.5"/><circle cx="38.37" cy="19.38" r="1.5"/><circle cx="38.37" cy="26.38" r="1.5"/><circle cx="35.37" cy="32.38" r="1.5"/><path d="m38.58.72c-.34-.63-1.09-.89-1.75-.61l-3.17 1.36c-2.84 1.22-4.17 4.42-3.02 7.29 1.56 3.9 2.35 8.02 2.35 12.22v1c0 5.97-4.68 10.92-10.43 11.02-2.89.04-5.59-1.03-7.64-3.04s-3.18-4.71-3.18-7.58v-1.4c0-4.21.79-8.32 2.35-12.22 1.15-2.87-.18-6.07-3.02-7.29l-3.15-1.36c-.65-.28-1.42-.01-1.75.61-.25.46-6.16 11.42-6.17 22.5v.15c0 6.14 2.77 11.99 7.6 16.05.25.21.56.33.85.33.05 0 .1 0 .15-.01.37-.03.7-.2.93-.48.24-.28.35-.64.32-1-.03-.37-.2-.7-.49-.93-4.21-3.54-6.62-8.62-6.62-13.95v-.15c.02-8.43 3.86-17.15 5.28-20.08l1.98.85c1.46.62 2.14 2.27 1.55 3.74-1.69 4.23-2.55 8.68-2.55 13.24v1.4c0 3.62 1.42 7.01 4 9.54 2.58 2.54 5.99 3.9 9.62 3.83 7.24-.13 13.12-6.31 13.12-13.77v-1c0-4.56-.86-9.01-2.55-13.24-.58-1.48.1-3.12 1.56-3.74l1.98-.85c1.42 2.94 5.26 11.65 5.27 20.07v.15c0 5.33-2.41 10.41-6.62 13.95-.28.24-.45.57-.49.93-.03.37.08.72.32 1 .49.58 1.35.65 1.94.17 4.83-4.06 7.6-9.91 7.6-16.05v-.15c-.01-11.08-5.92-22.04-6.17-22.5z"/><path d="m34.11 40c-.03-.05-.06-.1-.09-.13l-1.5-2.01c-.93-1.24-2.58-1.68-4.02-1.08-3.85 1.63-8.28 1.63-12.14 0-1.39-.59-3.11-.13-4.01 1.08l-1.5 2c-.04.05-.09.12-.12.18-.36.66-.12 1.5.54 1.86 3.38 1.86 7.24 2.84 11.16 2.84s7.78-.98 11.16-2.84c.32-.18.56-.48.66-.83s.05-.74-.13-1.06zm-20.08.21.53-.7c.17-.23.47-.31.74-.19 4.52 1.91 9.77 1.91 14.28 0 .27-.11.58-.03.75.19l.53.7c-5.15 2.3-11.7 2.3-16.83 0z"/></svg>