<?xml version="1.0" encoding="utf-8"?>
<!-- Generator: Adobe Illustrator 24.0.1, SVG Export Plug-In . SVG Version: 6.00 Build 0)  -->
<svg version="1.1" id="cactus" xmlns="http://www.w3.org/2000/svg" xmlns:xlink="http://www.w3.org/1999/xlink" x="0px" y="0px"
	 width="61.62px" height="60.93px" viewBox="0 0 61.62 60.93" style="enable-background:new 0 0 61.62 60.93;" xml:space="preserve"
	>
<path d="M61.37,31.34L61.37,31.34c-0.03-0.08-0.06-0.15-0.09-0.23c0.06-0.36,0.08-0.67,0.09-0.87l0.01-0.19
	c0.11-1.23,0.02-2.28-0.27-3.12c-0.13-0.39-0.25-0.71-0.39-1.02c-0.18-0.41-0.39-0.75-0.54-1l-0.75,0.45l0.69-0.54l-0.09-0.16
	c-0.27-0.49-0.58-1.01-1.02-1.51l-0.06-0.1c-0.02-0.28-0.03-0.63-0.03-1.09c0-0.46-0.01-0.89-0.04-1.34
	c-0.01-0.15-0.03-0.3-0.04-0.45c-0.02-0.16-0.03-0.24-0.03-0.32c0-0.17,0-0.35,0-0.53c0.01-0.87,0.03-1.96-0.39-3.01
	c-0.32-0.79-0.8-1.4-1.48-1.89l-0.11-0.08c-0.32-0.23-0.8-0.58-1.4-0.84l-0.08-0.03c-0.47-0.26-0.85-0.43-1.19-0.58l-0.29-0.13
	c-0.23-0.1-0.46-0.21-0.69-0.3c-0.54-0.22-1.22-0.49-1.98-0.67c-0.63-0.15-1.32-0.18-2-0.1c-0.56,0.07-1.07,0.23-1.6,0.53
	c-0.07,0-0.14,0.01-0.21,0.02c-0.45,0.05-0.77,0.19-0.88,0.23l-0.13,0.05l-0.34-0.09c-0.14-0.04-0.24-0.06-0.35-0.09
	c-0.38-0.08-0.71-0.09-0.93-0.09c0,0,0,0,0,0l-0.12,0c-0.62,0-1.3,0.03-2,0.28c-0.07,0.03-0.14,0.05-0.22,0.08
	c-0.1-0.06-0.2-0.12-0.3-0.18c-0.63-0.36-1.44-0.71-2.68-0.58l-0.03,0c-0.45-0.2-0.99-0.41-1.67-0.52c-0.15-0.02-0.3-0.04-0.44-0.06
	c-0.08-0.05-0.17-0.1-0.26-0.14c-0.29-0.15-0.68-0.36-1.19-0.49c-0.38-0.09-0.77-0.11-1.08-0.1c0-0.38-0.01-0.74-0.02-1.1
	c-0.02-0.82-0.03-1.58,0-2.31c0.01-0.22,0-0.43-0.02-0.6l-0.01-0.08c0-0.07,0-0.12,0-0.15c0.04-0.37,0.03-0.66,0.02-0.93l0-0.29
	c0-0.51,0.01-1.09-0.04-1.59c-0.01-0.36-0.02-0.9-0.27-1.5C34.25,1.52,33.44,0,31.28,0C31.14,0,31,0.01,30.89,0.01
	c-0.18,0.01-0.31,0.01-0.44,0.01l-0.59,0l-0.39,0c-0.39,0.01-0.77,0.01-1.16,0.02l-0.19,0c-0.5,0.01-1,0.01-1.5,0.02l-0.2,0
	c-0.36,0.01-0.72,0.01-1.09,0.01c-0.53,0-1.08,0.01-1.62,0.03c-0.06,0-0.12,0-0.17,0c-0.01,0-0.02,0-0.03,0l-0.66,0
	c-0.2,0-0.39,0-0.6,0.02c-0.15,0.01-0.31,0.01-0.46,0.01l-0.75,0c-0.14,0-0.28,0-0.49,0.01c-0.09,0-0.15,0.01-0.2,0.01l-0.38,0
	c-0.25,0-0.46,0.01-0.64,0.03c-0.7,0.07-1.37,0.35-1.88,0.79c-0.78,0.68-1.17,1.67-1.09,2.8l-0.01,0.16
	c-0.06,1.25-0.09,2.51-0.11,3.73L16.2,8.57c-0.01,0.28-0.02,0.57-0.03,0.85L16.16,9.8c-0.02,0.47-0.03,0.94-0.04,1.4
	c-0.01,0.86-0.04,1.71-0.08,2.52c-0.02,0.52-0.03,1.04-0.04,1.57c-0.01,0.41-0.01,0.74-0.03,1.08c-0.02,0.54-0.03,1.09-0.04,1.64
	l0,0.11c-0.02,0.72-0.03,1.44-0.06,2.16c-0.02,0.46-0.03,0.92-0.05,1.39l-10.51,0c-0.35,0-0.86,0-1.34,0.03
	c-0.42,0.01-1.06,0.04-1.73,0.36c-0.1,0.05-0.21,0.11-0.23,0.13c-0.31,0.16-0.56,0.34-0.79,0.54c-0.68,0.62-1.09,1.48-1.18,2.46
	c-0.02,0.19-0.05,0.48-0.03,0.83c0.06,0.88,0.46,1.73,1.14,2.4c0.17,0.17,0.36,0.34,0.56,0.48c0.34,1.29,0.98,2.3,1.87,2.97
	c0.43,0.36,0.85,0.6,1.18,0.79l0.24,0.14c0.2,0.12,0.39,0.23,0.6,0.34l0.25,0.13c0.11,0.06,0.22,0.11,0.3,0.16
	c0.1,0.15,0.27,0.46,0.38,0.65l0.24,0.54c0.1,0.25,0.18,0.5,0.26,0.75l0.1,0.3c0.07,0.32,0.15,0.62,0.27,1.02l0.06,0.22
	c0.11,0.38,0.22,0.74,0.34,1.08l0.04,0.14c0.06,0.19,0.15,0.44,0.27,0.71c0.63,1.34,1.76,1.99,2.44,2.38l0.05,0.02
	c0.17,0.12,0.27,0.19,0.38,0.25l0.37,0.22c0.15,0.09,0.27,0.16,0.37,0.22c-0.01,0-0.01,0,0.01,0.01l0.01,0c0,0,0.01,0,0.01,0.01
	l-0.01,0.01l0.23,0.23c0.36,0.41,0.71,0.74,0.95,0.97c0.22,0.21,0.52,0.5,0.96,0.75c0.73,0.42,1.42,0.51,1.87,0.54
	c0.56,0.04,1.1-0.01,1.61-0.14c0.6-0.15,1.01-0.4,1.18-0.51l0.1-0.05c0.2-0.1,0.37-0.18,0.53-0.28c0.37-0.22,0.64-0.46,0.82-0.62
	c0.13-0.12,0.22-0.2,0.3-0.28l0.13-0.12c0.27-0.24,0.49-0.47,0.68-0.67c0.15-0.16,0.24-0.26,0.31-0.31c0,0,0.09-0.06,0.29-0.14
	l0.09-0.04c0.04-0.02,0.08-0.03,0.13-0.05L22,41.24c0.16,0.06,0.33,0.15,0.56,0.28l0.4,0.22c0.18,0.09,0.31,0.17,0.44,0.24
	c0.09,0.05,0.17,0.12,0.27,0.19c0.21,0.15,0.39,0.28,0.54,0.38c0.02,0.02,0.12,0.13,0.4,0.63c0.2,0.35,0.35,0.81,0.48,1.4
	c0.12,0.54,0.28,1.04,0.42,1.47c0.18,0.56,0.41,1.09,0.69,1.58c0.17,0.31,0.43,0.73,0.85,1.13c0.29,0.28,0.56,0.48,0.78,0.63
	l0.13,0.09c0.11,0.08,0.22,0.16,0.34,0.24l0.07,0.09c0.18,0.22,0.35,0.44,0.53,0.63c0.42,0.46,0.85,0.71,1.11,0.86
	c0.04,0.02,0.07,0.04,0.11,0.06c0.03,0.09,0.07,0.19,0.1,0.29c0.11,0.32,0.23,0.65,0.37,0.98c0.04,0.09,0.08,0.19,0.12,0.3
	c0.21,0.53,0.48,1.2,0.92,1.8c0.73,1.01,1.63,1.71,2.25,2.15c0.26,0.19,0.46,0.32,0.68,0.45l0.88,0.5c0.38,0.23,0.78,0.46,1.22,0.67
	c0.68,0.34,1.41,0.59,2.28,0.81l0.55,0.15c0.14,0.04,0.28,0.07,0.42,0.1l0.22,0.05c0.09,0.02,0.19,0.05,0.28,0.08
	c0.23,0.07,0.41,0.12,0.58,0.17c0.29,0.07,0.4,0.1,0.39,0.1l0.1,0.05l0.74,0.37c0.15,0.08,0.31,0.15,0.47,0.2
	c0.49,0.24,0.97,0.35,1.46,0.35c1.76,0,3.16-1.32,3.32-3.14c0.08-0.86-0.08-1.55-0.2-1.98c-0.1-0.34-0.22-0.63-0.32-0.88l-0.06-0.15
	c-0.1-0.24-0.2-0.47-0.31-0.7c-0.09-0.2-0.18-0.39-0.22-0.53c-0.08-0.26-0.14-0.89-0.19-1.39c-0.02-0.27-0.04-0.48-0.07-0.68
	c-0.02-0.17-0.04-0.34-0.08-0.57c-0.02-0.12-0.03-0.21-0.04-0.29c-0.01-0.07,0-0.18,0-0.29c0.03-0.08,0.08-0.2,0.14-0.32
	c0.12-0.29,0.3-0.68,0.42-1.15c0.11-0.41,0.18-0.83,0.23-1.15c0.05-0.3,0.08-0.62,0.11-0.98c0.05-0.1,0.11-0.21,0.16-0.32
	c0.24-0.19,0.46-0.39,0.72-0.62c0.27-0.24,0.51-0.49,0.75-0.74l0.2-0.1c0.34-0.17,0.73-0.36,1.12-0.61l0.15-0.09
	c0.23-0.15,0.49-0.31,0.77-0.54c0.17-0.14,0.34-0.27,0.51-0.41c0.09-0.07,0.19-0.14,0.29-0.21c0.26-0.18,0.45-0.31,0.63-0.45
	c0.12-0.09,0.24-0.2,0.33-0.28c0.08-0.07,0.16-0.12,0.26-0.21l0.31-0.24c0.17-0.13,0.29-0.23,0.39-0.32l0.4-0.28
	c0.25-0.17,0.48-0.33,0.7-0.45c0.37-0.21,0.67-0.41,0.97-0.63c0.16-0.12,0.42-0.32,0.68-0.61c0.48-0.06,0.93-0.16,1.34-0.3
	c0.94-0.33,1.79-0.95,2.45-1.79c0.28-0.29,0.69-0.76,0.96-1.41c0.2-0.5,0.3-0.97,0.36-1.32c0.03-0.15,0.05-0.23,0.07-0.31
	c0.1-0.4,0.23-0.95,0.25-1.6C61.63,32.36,61.55,31.84,61.37,31.34z M55.61,36.17c-0.36,0.03-0.69,0.1-1,0.22
	c-0.31,0.12-0.56,0.31-0.81,0.62l-0.23,0.29c-0.03,0.04-0.1,0.09-0.16,0.14c-0.19,0.14-0.37,0.26-0.61,0.4
	c-0.33,0.19-0.64,0.4-0.94,0.6l-0.3,0.21l-0.41,0.31c-0.06,0.05-0.12,0.1-0.19,0.15l-0.35,0.27c-0.11,0.08-0.22,0.17-0.37,0.29
	l-0.12,0.11c-0.03,0.03-0.07,0.06-0.1,0.09c-0.14,0.1-0.28,0.2-0.48,0.34c-0.15,0.1-0.3,0.21-0.44,0.32
	c-0.21,0.16-0.41,0.32-0.6,0.48c-0.14,0.11-0.28,0.2-0.44,0.31l-0.13,0.08c-0.23,0.15-0.48,0.27-0.8,0.43
	c-0.18,0.09-0.36,0.18-0.54,0.28c-0.17,0.1-0.3,0.18-0.42,0.29c-0.06,0.06-0.12,0.12-0.19,0.21l-0.08,0.09
	c-0.13,0.14-0.31,0.33-0.5,0.5c-0.34,0.3-0.66,0.58-1.01,0.83l-0.09,0.06l-0.23,0.31c-0.05,0.11-0.1,0.22-0.16,0.37
	c-0.05,0.13-0.1,0.25-0.17,0.36l-0.06,0.09c-0.16,0.27-0.26,0.54-0.3,0.82l-0.01,0.27c-0.01,0.32-0.04,0.61-0.08,0.87
	c-0.04,0.23-0.09,0.53-0.16,0.79c-0.06,0.23-0.15,0.43-0.26,0.67c-0.11,0.24-0.22,0.5-0.3,0.78c-0.07,0.22-0.11,0.35-0.11,0.51
	l-0.01,0.19c-0.01,0.27-0.02,0.55,0.01,0.85c0.02,0.16,0.04,0.32,0.07,0.52c0.02,0.13,0.04,0.26,0.05,0.39
	c0.02,0.21,0.04,0.43,0.06,0.65c0.07,0.73,0.13,1.48,0.34,2.11c0.1,0.31,0.23,0.6,0.38,0.92c0.08,0.18,0.16,0.36,0.24,0.54
	l0.07,0.17c0.08,0.18,0.15,0.35,0.19,0.51c0.05,0.18,0.09,0.34,0.08,0.56l-0.13-0.04c-0.1-0.05-0.19-0.1-0.29-0.14l-0.42-0.21
	c-0.11-0.06-0.22-0.12-0.35-0.18c-0.26-0.11-0.53-0.19-0.85-0.27c-0.19-0.05-0.32-0.09-0.48-0.14l-0.11-0.03
	c-0.13-0.04-0.25-0.08-0.38-0.11l-0.36-0.08c-0.08-0.02-0.16-0.04-0.25-0.06l-0.15-0.04c-0.16-0.04-0.31-0.08-0.45-0.12
	c-0.63-0.16-1.13-0.33-1.58-0.55c-0.36-0.18-0.66-0.34-0.93-0.52c-0.09-0.06-0.19-0.11-0.27-0.15L36.3,54.3
	c-0.12-0.07-0.22-0.14-0.34-0.23c-0.48-0.34-1.09-0.81-1.51-1.39c-0.18-0.25-0.33-0.62-0.48-1c-0.06-0.15-0.12-0.31-0.19-0.46
	c-0.1-0.23-0.19-0.49-0.29-0.78c-0.1-0.3-0.21-0.6-0.33-0.86c-0.29-0.62-0.84-0.99-1.38-1.3c-0.13-0.08-0.25-0.15-0.32-0.22
	c-0.12-0.13-0.24-0.28-0.39-0.47c-0.09-0.12-0.19-0.23-0.28-0.35c-0.08-0.09-0.17-0.19-0.26-0.26c-0.05-0.04-0.1-0.07-0.19-0.12
	l-0.08-0.04c-0.09-0.06-0.17-0.12-0.26-0.18l-0.17-0.12c-0.16-0.11-0.27-0.2-0.36-0.28c-0.09-0.08-0.16-0.21-0.22-0.31
	c-0.16-0.3-0.31-0.62-0.42-0.97c-0.12-0.37-0.24-0.73-0.32-1.12c-0.2-0.94-0.47-1.69-0.84-2.36c-0.36-0.64-0.8-1.37-1.51-1.83
	c-0.12-0.08-0.24-0.17-0.41-0.29c-0.16-0.11-0.32-0.23-0.5-0.35c-0.2-0.12-0.41-0.24-0.65-0.36l-0.35-0.19
	c-0.33-0.18-0.67-0.37-1.09-0.52c-0.34-0.12-0.79-0.26-1.26-0.26c-0.08,0-0.15,0-0.21,0.01c-0.47,0.05-0.86,0.21-1.21,0.35
	c-0.49,0.2-0.89,0.42-1.17,0.64c-0.29,0.22-0.52,0.46-0.73,0.69c-0.14,0.15-0.28,0.3-0.46,0.45l-0.38,0.34
	c-0.13,0.11-0.23,0.21-0.35,0.28c-0.07,0.04-0.15,0.08-0.28,0.14l-0.38,0.21c-0.09,0.06-0.15,0.09-0.2,0.1
	c-0.17,0.04-0.34,0.06-0.51,0.04c-0.25-0.02-0.33-0.05-0.39-0.09c-0.07-0.04-0.14-0.11-0.23-0.19l-0.09-0.08
	c-0.2-0.19-0.47-0.44-0.71-0.72c-0.04-0.05-0.09-0.1-0.2-0.21l-0.14-0.14c-0.15-0.15-0.33-0.34-0.56-0.49
	c-0.2-0.12-0.4-0.24-0.61-0.36l-0.81-0.5c-0.41-0.24-0.84-0.48-1-0.81c-0.05-0.1-0.08-0.21-0.12-0.34l-0.06-0.17
	c-0.11-0.31-0.2-0.63-0.31-0.99l-0.04-0.15c-0.1-0.33-0.17-0.59-0.23-0.86c-0.02-0.09-0.05-0.17-0.08-0.25l-0.1-0.29
	c-0.11-0.32-0.21-0.62-0.32-0.91l-0.08-0.23c-0.05-0.13-0.1-0.27-0.16-0.38l-0.2-0.36c-0.3-0.56-0.61-1.14-1.09-1.59
	c-0.28-0.27-0.66-0.46-1.02-0.64l-0.27-0.14c-0.14-0.08-0.29-0.16-0.44-0.25l-0.27-0.16C6.22,29.47,6,29.34,5.76,29.14
	c-0.34-0.26-0.56-0.65-0.7-1.25C5,27.64,4.92,27.42,4.83,27.22c-0.12-0.26-0.2-0.44-0.33-0.59c-0.16-0.2-0.37-0.32-0.56-0.44
	c-0.11-0.07-0.22-0.15-0.33-0.26c-0.08-0.08-0.11-0.15-0.12-0.17c0-0.05,0.01-0.11,0.01-0.18c0.02-0.22,0.07-0.28,0.11-0.3
	l0.13-0.07C3.81,25.2,3.92,25.2,4,25.19l0.16-0.01c0.39-0.02,0.82-0.03,1.16-0.03l13.92,0l0.03-0.97c0-0.08,0-0.16,0-0.27
	c0-0.08,0-0.16,0-0.24c0.02-0.45,0.03-0.9,0.04-1.35c0.02-0.64,0.03-1.28,0.06-1.91c0.03-0.71,0.05-1.43,0.07-2.22
	c0.01-0.57,0.03-1.14,0.05-1.71c0.01-0.38,0.02-0.77,0.03-1.16c0.01-0.49,0.02-0.97,0.04-1.45c0.04-0.83,0.06-1.69,0.08-2.63
	c0.01-0.49,0.02-0.98,0.04-1.48l0-0.1c0.01-0.34,0.02-0.68,0.03-1.02l0.02-0.93c0.03-1.18,0.05-2.4,0.11-3.69
	c0.01-0.15,0.01-0.27,0.01-0.38c0.04,0,0.07,0,0.1,0l0.37,0c0.09,0,0.19,0,0.28-0.01l0.1,0c0.11,0,0.21-0.01,0.31-0.01l0.75,0
	c0.22,0,0.45,0,0.68-0.02c0.13-0.01,0.26-0.01,0.38-0.01l0.65,0c0.12,0,0.24,0,0.36-0.01c0.52-0.02,1.04-0.02,1.64-0.03l0.13,0
	c0.36,0,0.72,0,1.07-0.01c0.39-0.01,0.77-0.01,1.16-0.02l0.19,0c0.5-0.01,1-0.01,1.49-0.02l0.33,0l0.58,0c0.18,0,0.36,0,0.57-0.01
	c0.09-0.01,0.15-0.01,0.2-0.01c0,0.01,0,0.01,0,0.02c0,0.07,0,0.15,0.01,0.22c0.04,0.41,0.03,0.9,0.03,1.33l0,0.33l0,0.18
	c0,0.1,0.01,0.2,0,0.29c-0.02,0.2-0.03,0.39-0.03,0.6c0,0.1,0.01,0.19,0.01,0.29c0.01,0.08,0.01,0.17,0.01,0.26
	c-0.03,0.81-0.01,1.67,0,2.5c0.01,0.5,0.02,0.99,0.02,1.47l0,0.26c0,0.11,0,0.23,0,0.33l0,0.19c0,0.16,0.01,0.3,0.04,0.44
	c0.09,0.41,0.36,0.64,0.56,0.81c0.04,0.04,0.09,0.07,0.14,0.12c0.11,0.11,0.24,0.22,0.36,0.32l0.24,0.21
	c0.27,0.25,0.58,0.53,1.08,0.54c0.15,0,0.28-0.03,0.41-0.06l0.37-0.07c0.35-0.07,0.51-0.06,0.56-0.05c0.08,0.02,0.21,0.09,0.3,0.14
	c0.15,0.08,0.23,0.13,0.35,0.21c0.11,0.08,0.23,0.15,0.38,0.23c0.21,0.09,0.41,0.11,0.67,0.12c0.13,0.01,0.29,0.02,0.45,0.05
	c0.4,0.06,0.76,0.24,1.12,0.41l0.51,0.23l0.21,0c0.25-0.01,0.44-0.04,0.69-0.08l0.19-0.03c0.15-0.02,0.24,0.01,0.47,0.14
	c0.23,0.13,0.45,0.28,0.62,0.38c0.3,0.2,0.6,0.33,0.88,0.39c0.63,0.14,1.21-0.11,1.59-0.28c0.11-0.05,0.22-0.1,0.32-0.13
	c0.2-0.07,0.45-0.08,0.78-0.08l0.21,0c0.06,0,0.13,0,0.14,0l0.47,0.12c0.27,0.07,0.55,0.14,0.91,0.2c0.16,0.02,0.34,0.03,0.6-0.01
	c0.16-0.03,0.28-0.09,0.39-0.14l0.09-0.04c0.09-0.04,0.17-0.07,0.34-0.13c0.05-0.02,0.09-0.04,0.09-0.04l0.6,0.05l0.23-0.13
	c0.15-0.06,0.29-0.13,0.45-0.23c0.2-0.13,0.35-0.21,0.52-0.23c0.27-0.03,0.54-0.02,0.78,0.04c0.49,0.11,0.98,0.31,1.43,0.49
	c0.23,0.09,0.41,0.17,0.59,0.26l0.31,0.14c0.3,0.13,0.61,0.27,0.9,0.44c0.08,0.05,0.14,0.08,0.19,0.1L54,16.69
	c0.3,0.13,0.53,0.3,0.8,0.5l0.11,0.08c0.14,0.1,0.21,0.19,0.29,0.37c0.16,0.39,0.15,0.99,0.14,1.64l-0.01,0.6
	c0,0.21,0.02,0.43,0.05,0.67c0.01,0.11,0.02,0.23,0.03,0.34c0.03,0.35,0.03,0.74,0.03,1.13c0,0.46,0.01,0.94,0.05,1.4
	c0.01,0.1,0.02,0.19,0.04,0.27c0.01,0.06,0.02,0.13,0.03,0.17l0.02,0.19c0.06,0.36,0.22,0.62,0.32,0.76
	c0.11,0.17,0.18,0.28,0.25,0.37c0.06,0.09,0.12,0.16,0.21,0.25l0.08,0.09c0.21,0.24,0.39,0.55,0.56,0.85
	c0.06,0.12,0.13,0.23,0.21,0.36c0.12,0.2,0.24,0.4,0.34,0.61c0.1,0.22,0.18,0.44,0.27,0.72c0.13,0.37,0.16,0.98,0.1,1.71L57.88,30
	c-0.01,0.22-0.03,0.43-0.07,0.63c-0.08,0.35-0.16,0.71-0.01,1.18c0.06,0.19,0.09,0.29,0.14,0.41L58,32.36
	c0.03,0.06,0.06,0.12,0.08,0.19c0.02,0.06,0.04,0.13,0.04,0.27c-0.01,0.28-0.07,0.54-0.15,0.85c-0.03,0.13-0.06,0.27-0.09,0.4
	c-0.06,0.31-0.11,0.56-0.18,0.74c-0.04,0.09-0.14,0.2-0.23,0.3c-0.09,0.1-0.19,0.2-0.28,0.32c-0.22,0.28-0.51,0.49-0.83,0.6
	C56.16,36.1,55.91,36.15,55.61,36.17z M41.1,57.16L41.1,57.16L41.1,57.16L41.1,57.16z M56.21,19.4L56.21,19.4L56.21,19.4
	C56.21,19.4,56.21,19.4,56.21,19.4z M11.75,41.93c0,0-0.01,0-0.01-0.01l0.11-0.09L11.75,41.93z"/>
</svg>
