<?xml version="1.0" encoding="utf-8"?>
<!-- Generator: Adobe Illustrator 24.0.1, SVG Export Plug-In . SVG Version: 6.00 Build 0)  -->
<svg version="1.1" id="horseshoe" xmlns="http://www.w3.org/2000/svg" xmlns:xlink="http://www.w3.org/1999/xlink" x="0px" y="0px"
	 width="44.75px" height="44.75px" viewBox="0 0 44.75 44.75" style="enable-background:new 0 0 44.75 44.75;" xml:space="preserve"
	>
<g>
	<circle cx="9.44" cy="32.38" r="1.5"/>
	<circle cx="6.44" cy="26.38" r="1.5"/>
	<circle cx="6.44" cy="19.38" r="1.5"/>
	<circle cx="7.44" cy="12.38" r="1.5"/>
	<circle cx="37.44" cy="12.38" r="1.5"/>
	<circle cx="38.37" cy="19.38" r="1.5"/>
	<circle cx="38.37" cy="26.38" r="1.5"/>
	<circle cx="35.37" cy="32.38" r="1.5"/>
</g>
<g>
	<path d="M38.58,0.72c-0.34-0.63-1.09-0.89-1.75-0.61l-3.17,1.36c-2.84,1.22-4.17,4.42-3.02,7.29c1.56,3.9,2.35,8.02,2.35,12.22v1
		c0,5.97-4.68,10.92-10.43,11.02c-2.89,0.04-5.59-1.03-7.64-3.04c-2.05-2.01-3.18-4.71-3.18-7.58v-1.4c0-4.21,0.79-8.32,2.35-12.22
		c1.15-2.87-0.18-6.07-3.02-7.29L7.92,0.11C7.27-0.17,6.5,0.1,6.17,0.72C5.92,1.18,0.01,12.14,0,23.22v0.15
		c0,6.14,2.77,11.99,7.6,16.05c0.25,0.21,0.56,0.33,0.85,0.33c0.05,0,0.1,0,0.15-0.01c0.37-0.03,0.7-0.2,0.93-0.48
		c0.24-0.28,0.35-0.64,0.32-1c-0.03-0.37-0.2-0.7-0.49-0.93c-4.21-3.54-6.62-8.62-6.62-13.95v-0.15C2.76,14.8,6.6,6.08,8.02,3.15
		L10,4c1.46,0.62,2.14,2.27,1.55,3.74C9.86,11.97,9,16.42,9,20.98v1.4c0,3.62,1.42,7.01,4,9.54c2.58,2.54,5.99,3.9,9.62,3.83
		c7.24-0.13,13.12-6.31,13.12-13.77v-1c0-4.56-0.86-9.01-2.55-13.24C32.61,6.26,33.29,4.62,34.75,4l1.98-0.85
		C38.15,6.09,41.99,14.8,42,23.22v0.15c0,5.33-2.41,10.41-6.62,13.95c-0.28,0.24-0.45,0.57-0.49,0.93c-0.03,0.37,0.08,0.72,0.32,1
		c0.49,0.58,1.35,0.65,1.94,0.17c4.83-4.06,7.6-9.91,7.6-16.05v-0.15C44.74,12.14,38.83,1.18,38.58,0.72z"/>
	<path d="M34.11,40c-0.03-0.05-0.06-0.1-0.09-0.13l-1.5-2.01c-0.93-1.24-2.58-1.68-4.02-1.08c-3.85,1.63-8.28,1.63-12.14,0
		c-1.39-0.59-3.11-0.13-4.01,1.08l-1.5,2c-0.04,0.05-0.09,0.12-0.12,0.18c-0.36,0.66-0.12,1.5,0.54,1.86
		c3.38,1.86,7.24,2.84,11.16,2.84c3.92,0,7.78-0.98,11.16-2.84c0.32-0.18,0.56-0.48,0.66-0.83c0.1-0.35,0.05-0.74-0.13-1.06
		L34.11,40z M14.03,40.21l0.53-0.7c0.17-0.23,0.47-0.31,0.74-0.19c4.52,1.91,9.77,1.91,14.28,0c0.27-0.11,0.58-0.03,0.75,0.19
		l0.53,0.7C25.71,42.51,19.16,42.51,14.03,40.21z"/>
</g>
</svg>
