<svg enable-background="new 0 0 63.5 48.1" height="48.1" viewBox="0 0 63.5 48.1" width="63.5" xmlns="http://www.w3.org/2000/svg"><path d="m61.25 14.16h-6.59v-.85c0-1.24-1.01-2.25-2.25-2.25h-.18c-.09-1.15-1.06-2.06-2.24-2.06h-1.07c-3.33 0-5.07-.14-6.34-.98v-1.53c0-1.24-1.01-2.25-2.25-2.25h-.88c-.68-1.39-2.65-4.24-7.4-4.24-4.74 0-6.72 2.85-7.4 4.24h-.88c-1.24 0-2.25 1.01-2.25 2.25v1.53c-1.26.84-3 .98-6.33.98h-1.07c-1.18 0-2.15.91-2.24 2.06h-.18c-1.24 0-2.25 1.01-2.25 2.25v.85h-7.2c-1.24 0-2.25 1.01-2.25 2.25v29.44c0 1.24 1.01 2.25 2.25 2.25h25.71c1.24 0 2.25-1.01 2.25-2.25v-10.27c0-1.9 1.26-2.1 1.8-2.1h.06c.55 0 1.83.21 1.83 2.1v10.27c0 1.24 1.01 2.25 2.25 2.25h25.1c1.24 0 2.25-1.01 2.25-2.25v-29.44c0-1.24-1.01-2.25-2.25-2.25zm-29.15 16.82h-.09c-2.07 0-4.3 1.44-4.3 4.6v10.02h-25.21v-28.94h9.45v-3.1h2.42v-2.06h.82c4.05 0 6.66-.15 8.77-2.26l.07-.07v-2.43h2.52v-.25c0-.62 1.02-3.99 5.51-3.99 4.5 0 5.51 3.37 5.51 3.99v.25h2.52v2.43l.07.07c2.11 2.11 4.72 2.26 8.76 2.26h.82v2.06h2.42v3.1h8.84v28.94h-24.6v-10.02c0-3.16-2.23-4.6-4.3-4.6z"/><path d="m10.42 29.84h-3.01c-1.24 0-2.25 1.01-2.25 2.25v4.55c0 1.24 1.01 2.25 2.25 2.25h3.01c1.24 0 2.25-1.01 2.25-2.25v-4.55c0-1.24-1.01-2.25-2.25-2.25zm-.25 2.5v4.05h-2.51v-4.05z"/><path d="m10.42 18.58h-3.01c-1.24 0-2.25 1.01-2.25 2.25v4.55c0 1.24 1.01 2.25 2.25 2.25h3.01c1.24 0 2.25-1.01 2.25-2.25v-4.55c0-1.25-1.01-2.25-2.25-2.25zm-.25 2.5v4.05h-2.51v-4.05z"/><path d="m20.19 29.12c-2.27 0-4.69 1.71-4.69 4.87v6.87c0 1.24 1.01 2.25 2.25 2.25h4.93c1.24 0 2.25-1.01 2.25-2.25v-6.87c0-3.16-2.44-4.87-4.74-4.87zm2.24 4.87v6.62h-4.43v-6.62c0-1.64 1.1-2.37 2.19-2.37 1.08 0 2.24.74 2.24 2.37z"/><path d="m20.19 13.64c-2.27 0-4.69 1.71-4.69 4.87v6.87c0 1.24 1.01 2.25 2.25 2.25h4.93c1.24 0 2.25-1.01 2.25-2.25v-6.87c0-3.16-2.44-4.87-4.74-4.87zm2.24 4.87v6.62h-4.43v-6.62c0-1.64 1.1-2.37 2.19-2.37 1.08 0 2.24.74 2.24 2.37z"/><path d="m37.36 25.38v-9.45c0-1.24-1.01-2.25-2.25-2.25h-6.11c-1.24 0-2.25 1.01-2.25 2.25v9.45c0 1.24 1.01 2.25 2.25 2.25h6.1c1.25 0 2.26-1.01 2.26-2.25zm-2.5-9.2v8.95h-5.6v-8.95z"/><path d="m41.43 43.11h4.93c1.24 0 2.25-1.01 2.25-2.25v-6.87c0-3.16-2.42-4.87-4.69-4.87-2.3 0-4.74 1.71-4.74 4.87v6.87c0 1.24 1.01 2.25 2.25 2.25zm.25-2.5v-6.62c0-1.63 1.16-2.37 2.24-2.37 1.09 0 2.19.73 2.19 2.37v6.62z"/><path d="m41.43 27.63h4.93c1.24 0 2.25-1.01 2.25-2.25v-6.87c0-3.16-2.42-4.87-4.69-4.87-2.3 0-4.74 1.71-4.74 4.87v6.87c0 1.24 1.01 2.25 2.25 2.25zm.25-2.5v-6.62c0-1.63 1.16-2.37 2.24-2.37 1.09 0 2.19.73 2.19 2.37v6.62z"/><path d="m53.68 38.9h3.01c1.24 0 2.25-1.01 2.25-2.25v-4.55c0-1.24-1.01-2.25-2.25-2.25h-3.01c-1.24 0-2.25 1.01-2.25 2.25v4.55c0 1.24 1.01 2.25 2.25 2.25zm.25-2.5v-4.05h2.51v4.05z"/><path d="m53.68 27.63h3.01c1.24 0 2.25-1.01 2.25-2.25v-4.55c0-1.24-1.01-2.25-2.25-2.25h-3.01c-1.24 0-2.25 1.01-2.25 2.25v4.55c0 1.24 1.01 2.25 2.25 2.25zm.25-2.5v-4.05h2.51v4.05z"/></svg>