<svg enable-background="new 0 0 197.5 17.25" height="17.25" viewBox="0 0 197.5 17.25" width="197.5" xmlns="http://www.w3.org/2000/svg"><path d="m49.46 4.81c0-.66.38-1.01 1.09-1.01h.86v9.79h-.86c-.72 0-1.09-.35-1.09-1.01z"/><path d="m56.45 11.6c.26.2.55.32.92.32v.89c0 .43-.2.72-.61.81-.32.09-.66.06-.98-.12-.52-.26-.95-.61-1.24-1.09-.35-.55-.52-1.18-.52-1.98v-9.13c0-.66.38-1.01 1.09-1.01h.86v10.16c.03.49.17.89.48 1.15z"/><path d="m66.56 4.63c.98.78 1.44 1.79 1.44 2.94v6.05h-.58c-.49 0-.84-.26-1.09-.81-.78.78-1.9 1.09-3 1.09-1.27 0-2.33-.38-3.23-1.15-.98-.78-1.44-1.76-1.44-2.91v-2.27c0-1.15.49-2.13 1.44-2.94.89-.75 1.98-1.15 3.23-1.15 1.22 0 2.31.41 3.23 1.15zm-3.25.81c-.78 0-1.44.23-2.01.69-.49.4-.72.86-.72 1.44v2.27c0 .55.26 1.01.72 1.44.55.43 1.21.66 2.01.66.78 0 1.44-.23 2.01-.66.49-.4.72-.86.72-1.44v-2.27c0-.55-.26-1.01-.72-1.44-.57-.46-1.2-.69-2.01-.69z"/><path d="m82.11 4.81c0-.66.38-1.01 1.07-1.01h.86v6.05c0 1.27-.35 2.24-1.04 2.94-.72.72-1.67 1.09-2.88 1.09-1.24 0-2.21-.43-2.94-1.27-.75.84-1.73 1.27-2.94 1.27-1.24 0-2.19-.38-2.88-1.09-.69-.72-1.04-1.7-1.04-2.94v-5.01c0-.66.38-1.01 1.09-1.01h.86v6.05c0 .72.17 1.27.49 1.61.32.32.81.49 1.47.49.61 0 1.09-.17 1.41-.52.38-.38.55-.89.55-1.58v-5c0-.66.38-1.01 1.09-1.01h.87v6.05c0 .66.2 1.18.55 1.58.35.35.84.52 1.41.52.66 0 1.15-.17 1.47-.49s.49-.86.49-1.61z"/><path d="m95.01 3.8-3.8 10.77c-.09.26-.2.49-.29.72-.09.2-.17.43-.32.63-.26.4-.63.72-1.09.98-.38.15-.69.2-1.01.12-.38-.09-.58-.38-.58-.81v-.89c.23 0 .43-.06.66-.15.26-.12.43-.26.49-.49l.38-.98c-.61-.15-1.01-.46-1.18-.95l-2.87-8.07c-.09-.26-.09-.43 0-.61.09-.17.26-.26.55-.26h1.21l2.88 8.09h.03l2.62-7.37c.17-.49.52-.72 1.01-.72z"/><path d="m103.04 4c.49.26.89.61 1.21 1.01.38.52.55 1.09.55 1.7.03.52-.09 1.01-.32 1.44-.2.38-.49.66-.84.92s-.72.43-1.18.55c-.38.12-.81.17-1.27.17h-2.36c-.17 0-.29 0-.38-.03-.15-.03-.26-.09-.32-.15v.81c0 .46.23.84.69 1.09.38.23.84.38 1.32.38.43.06.92.03 1.41-.09.35-.09.66-.2.92-.4.09-.06.15-.15.26-.23.29-.35.66-.4 1.15-.17l.95.46c-.17.4-.43.78-.72 1.09-.43.43-.98.78-1.67 1.01-.58.2-1.21.32-1.9.32-.58 0-1.09-.06-1.5-.15-.55-.15-1.01-.32-1.41-.61-.49-.32-.84-.75-1.09-1.3-.23-.49-.35-1.07-.35-1.67v-3.16c0-.49.12-.98.32-1.44.32-.69.89-1.21 1.64-1.58.66-.32 1.44-.49 2.27-.49.89 0 1.82.12 2.62.52zm-.72 3.63c.32-.17.49-.43.55-.81.03-.38-.09-.66-.38-.89-.38-.32-.95-.43-1.44-.49-.55-.03-1.07.03-1.5.12-.4.09-.72.26-.98.46-.29.26-.43.55-.43.92v.92h3.23c.37 0 .69-.06.95-.23z"/><path d="m106.67 7.23c0-1.15.38-2.04 1.12-2.65.61-.52 1.35-.78 2.21-.78h1.27v.86c0 .72-.32 1.09-1.01 1.09h-.26c-.35 0-.66.12-.92.32-.32.26-.46.66-.46 1.15v6.36h-.86c-.72 0-1.09-.35-1.09-1.01z"/><path d="m124.06 5.93c-.32-.32-.81-.49-1.47-.49-.61 0-1.09.17-1.44.55-.38.4-.55.92-.55 1.58v6.05h-.86c-.72 0-1.09-.35-1.09-1.01v-5.01c0-.66-.17-1.18-.55-1.58-.35-.38-.84-.55-1.44-.55-.66 0-1.18.17-1.5.49-.32.38-.49.89-.49 1.61v6.05h-.86c-.72 0-1.09-.35-1.09-1.01v-5c0-1.24.35-2.21 1.04-2.94.69-.75 1.67-1.12 2.88-1.12 1.01 0 1.87.32 2.56.89.09.06.2.2.38.38.15-.15.26-.26.38-.38.66-.61 1.55-.89 2.59-.89 1.21 0 2.19.38 2.88 1.12.69.72 1.04 1.73 1.04 2.94v6.05h-.86c-.72 0-1.09-.35-1.09-1.01v-5.01c.06-.79-.12-1.34-.46-1.71z"/><path d="m136.41 4.63c.98.78 1.44 1.78 1.44 2.94v6.05h-.58c-.49 0-.84-.26-1.09-.81-.81.78-1.9 1.09-3 1.09-1.27 0-2.33-.38-3.23-1.15-.98-.78-1.44-1.76-1.44-2.91v-2.27c0-1.15.49-2.13 1.44-2.94.89-.75 1.98-1.15 3.23-1.15 1.24 0 2.31.41 3.23 1.15zm-3.22.81c-.78 0-1.44.23-2.01.69-.49.4-.72.86-.72 1.44v2.27c0 .55.26 1.01.72 1.44.55.43 1.21.66 2.01.66.81 0 1.44-.23 2.01-.66.49-.4.72-.86.72-1.44v-2.27c0-.55-.26-1.01-.72-1.44-.58-.46-1.24-.69-2.01-.69z"/><path d="m140.15 7.23c0-1.15.38-2.04 1.12-2.65.61-.52 1.35-.78 2.21-.78h1.27v.86c0 .72-.32 1.09-1.01 1.09h-.26c-.35 0-.66.12-.92.32-.32.26-.46.66-.46 1.15v6.36h-.86c-.72 0-1.09-.35-1.09-1.01z"/><path d="m146.43 1.32c0-.66.38-1.01 1.09-1.01h.86v7.57h.72c.38 0 .75.03.98-.38l1.84-3c.29-.46.69-.69 1.18-.69h1.53l-2.33 3.8c-.15.2-.26.4-.38.55.63.29 1.15.84 1.47 1.61l1.67 3.8h-1.27c-.58 0-.98-.2-1.15-.61l-1.07-2.42c-.2-.49-.58-.72-1.09-.72h-2.1v3.77h-.86c-.72 0-1.09-.35-1.09-1.01z"/><path d="m163.1 4c.49.26.89.61 1.21 1.01.38.52.55 1.09.55 1.7.03.52-.09 1.01-.32 1.44-.2.38-.49.66-.84.92s-.72.43-1.18.55c-.38.12-.81.17-1.27.17h-2.36c-.17 0-.29 0-.38-.03-.15-.03-.26-.09-.32-.15v.81c0 .46.23.84.69 1.09.38.23.84.38 1.32.38.43.06.92.03 1.41-.09.35-.09.66-.2.92-.4.09-.06.15-.15.26-.23.29-.35.66-.4 1.15-.17l.95.46c-.17.4-.43.78-.72 1.09-.43.43-.98.78-1.67 1.01-.58.2-1.21.32-1.9.32-.58 0-1.09-.06-1.5-.15-.55-.15-1.01-.32-1.41-.61-.49-.32-.84-.75-1.09-1.3-.23-.49-.35-1.07-.35-1.67v-3.16c0-.49.12-.98.32-1.44.32-.69.89-1.21 1.64-1.58.66-.32 1.44-.49 2.27-.49.89 0 1.81.12 2.62.52zm-.72 3.63c.32-.17.49-.43.55-.81.03-.38-.09-.66-.38-.89-.38-.32-.95-.43-1.44-.49-.55-.03-1.07.03-1.5.12-.4.09-.72.26-.98.46-.29.26-.43.55-.43.92v.92h3.23c.37 0 .69-.06.95-.23z"/><path d="m171.07 3.8v.86c0 .72-.35 1.09-1.01 1.09h-1.27v4.69c0 .49.15.89.46 1.15.26.2.55.32.89.32v.89c0 .43-.2.72-.58.81-.32.09-.66.06-1.01-.12-.52-.26-.95-.61-1.24-1.09-.32-.55-.49-1.18-.49-1.98v-9.12c0-.66.35-1.01 1.07-1.01h.89v3.51z"/><path d="m178.59 4.58c.86-.72 1.9-1.09 3.08-1.09s2.24.38 3.11 1.09c.92.78 1.38 1.73 1.38 2.79v6.19h-.86c-.72 0-1.09-.35-1.09-1.01v-5.18c0-.49-.23-.95-.66-1.3-.49-.43-1.12-.63-1.84-.63s-1.35.2-1.84.63c-.43.38-.66.81-.66 1.3v6.19h-.86c-.72 0-1.09-.35-1.09-1.01v-5.18c-.06-1.09.4-2.01 1.33-2.79z"/><path d="m196.06 4.63c.95.78 1.44 1.78 1.44 2.94v5.93c0 .61-.12 1.15-.38 1.61-.49.98-1.44 1.61-2.45 1.9-.52.15-1.09.23-1.7.23-.52 0-1.01-.06-1.5-.15-.43-.09-.75-.26-.89-.49-.12-.2-.15-.46-.03-.81l.17-.78c.43.2 1.01.32 1.73.32.63.03 1.21-.06 1.73-.2.95-.26 1.41-.81 1.41-1.67v-.36c-.81.52-1.73.78-2.74.78-1.24 0-2.33-.38-3.23-1.15-.95-.78-1.44-1.76-1.44-2.91v-2.28c0-1.15.49-2.13 1.44-2.94.92-.75 1.98-1.15 3.23-1.15 1.2.03 2.29.44 3.21 1.18zm-3.25.81c-.78 0-1.44.23-2.01.69-.49.4-.72.86-.72 1.44v2.27c0 .55.26 1.01.72 1.44.55.43 1.21.66 2.01.66.78 0 1.44-.23 2.01-.66.49-.4.72-.86.72-1.44v-2.27c0-.55-.26-1.01-.72-1.44-.54-.46-1.2-.69-2.01-.69z"/><path d="m51.36.95c0 .52-.43.95-.95.95s-.95-.43-.95-.95.43-.95.95-.95.95.43.95.95z"/><path d="m172.77 4.9c0-.66.38-1.01 1.09-1.01h.86v9.79h-.86c-.72 0-1.09-.35-1.09-1.01z"/><path d="m174.64 1.04c0 .52-.43.95-.95.95s-.95-.43-.95-.95.43-.95.95-.95c.52-.03.95.4.95.95z"/><path d="m1.5 12c-.48-.21-.85-.5-1.11-.88-.26-.38-.39-.82-.39-1.32v-.27c0-.04.02-.08.04-.1.03-.03.06-.04.1-.04h1.37c.04 0 .08.02.1.04.03.03.04.06.04.1v.18c0 .32.15.59.45.81s.7.33 1.2.33c.43 0 .74-.09.95-.27s.31-.4.31-.67c0-.19-.07-.36-.19-.49-.13-.12-.3-.24-.52-.34s-.57-.24-1.05-.42c-.54-.18-.99-.37-1.36-.56-.37-.2-.69-.45-.94-.79-.25-.33-.38-.74-.38-1.23 0-.48.13-.9.37-1.26.25-.36.59-.64 1.03-.83s.95-.29 1.53-.29c.61 0 1.15.11 1.63.33.48.2.85.51 1.12.9s.4.84.4 1.35v.18c0 .04-.02.08-.04.1-.03.03-.06.04-.1.04h-1.38c-.04 0-.08-.02-.1-.04-.03-.03-.04-.06-.04-.1v-.1c0-.34-.14-.62-.42-.86-.27-.23-.65-.35-1.13-.35-.38 0-.67.08-.88.24-.22.16-.33.38-.33.66 0 .2.06.37.19.51s.31.26.55.37c.25.11.62.26 1.14.44.57.2 1.01.38 1.34.54s.62.4.88.72.39.73.39 1.23c0 .75-.28 1.35-.83 1.78s-1.3.66-2.25.66c-.64.01-1.21-.09-1.69-.3z"/><path d="m8.34 12.17c-.03-.03-.04-.06-.04-.1v-8.13c0-.04.02-.08.04-.1.02-.03.06-.04.1-.04h1.41c.04 0 .08.02.1.04.03.03.04.06.04.1v8.13c0 .04-.02.08-.04.1-.03.03-.06.04-.1.04h-1.41c-.04 0-.07-.01-.1-.04z"/><path d="m17.97 3.84c.03.03.04.06.04.1v1.18c0 .04-.02.08-.04.1-.03.03-.06.04-.1.04h-2.15c-.04 0-.06.02-.06.06v6.74c0 .04-.02.08-.04.1-.03.03-.06.04-.1.04h-1.41c-.04 0-.08-.02-.1-.04-.03-.03-.04-.06-.04-.1v-6.74c0-.04-.02-.06-.06-.06h-2.09c-.04 0-.08-.02-.1-.04-.03-.03-.04-.06-.04-.1v-1.18c0-.04.02-.08.04-.1.03-.03.06-.04.1-.04h6.06c.03-.01.06.01.09.04z"/><path d="m25.5 5.21c-.03.03-.06.04-.1.04h-3.94c-.04 0-.06.02-.06.06v1.86c0 .04.02.06.06.06h2.59c.04 0 .08.02.1.04.03.03.04.06.04.1v1.17c0 .04-.02.08-.04.1-.03.03-.06.04-.1.04h-2.59c-.04 0-.06.02-.06.06v1.95c0 .04.02.06.06.06h3.94c.04 0 .08.02.1.04.03.03.04.06.04.1v1.17c0 .04-.02.08-.04.1-.03.03-.06.04-.1.04h-5.56c-.04 0-.08-.02-.1-.04-.03-.03-.04-.06-.04-.1v-8.12c0-.04.02-.08.04-.1.03-.03.06-.04.1-.04h5.56c.04 0 .08.02.1.04.03.03.04.06.04.1v1.17c0 .04-.01.07-.04.1z"/><path d="m35.32 7.9c.76.39 1.14 1.05 1.14 1.96 0 .78-.27 1.36-.79 1.76-.53.4-1.22.6-2.08.6h-3.12c-.04 0-.08-.02-.1-.04-.03-.03-.04-.06-.04-.1v-8.14c0-.04.02-.08.04-.1.03-.03.06-.04.1-.04h3.02c1.9 0 2.85.77 2.85 2.31 0 .8-.34 1.38-1.02 1.72-.05.02-.05.04 0 .07zm-3.3-2.59v1.87c0 .04.02.06.06.06h1.41c.38 0 .67-.09.88-.27s.31-.42.31-.72c0-.31-.11-.56-.31-.74-.21-.18-.5-.27-.88-.27h-1.41c-.04.01-.06.03-.06.07zm2.43 5.15c.21-.19.31-.45.31-.78s-.11-.59-.31-.78-.5-.28-.88-.28h-1.49c-.04 0-.06.02-.06.06v1.99c0 .04.02.06.06.06h1.5c.38.02.66-.08.87-.27z"/><path d="m40.06 12.16c-.03-.03-.04-.06-.04-.1v-3.04c0-.03-.01-.06-.01-.07l-2.49-4.99c-.02-.03-.03-.06-.03-.07 0-.07.05-.1.13-.1h1.51c.08 0 .14.04.17.11l1.5 3.2c.03.05.05.05.07 0l1.5-3.2c.03-.07.09-.11.17-.11h1.54c.06 0 .1.02.12.04.02.03.02.07-.01.13l-2.5 4.98c.01.02.01.04.01.07v3.04c0 .04-.02.08-.04.1-.03.03-.06.04-.1.04h-1.39c-.05.01-.08 0-.11-.03z"/></svg>