<?xml version="1.0" encoding="utf-8"?>
<!-- Generator: Adobe Illustrator 23.1.1, SVG Export Plug-In . SVG Version: 6.00 Build 0)  -->
<svg version="1.1" id="Layer_1" xmlns="http://www.w3.org/2000/svg" xmlns:xlink="http://www.w3.org/1999/xlink" x="0px" y="0px"
	 width="197.5px" height="17.25px" viewBox="0 0 197.5 17.25" style="enable-background:new 0 0 197.5 17.25;" xml:space="preserve"
	>
<style type="text/css">
	.st0{fill:#000;}
</style>
<g>
	<path class="st0" d="M49.46,4.81c0-0.66,0.38-1.01,1.09-1.01h0.86v9.79h-0.86c-0.72,0-1.09-0.35-1.09-1.01V4.81z"/>
	<path class="st0" d="M56.45,11.6c0.26,0.2,0.55,0.32,0.92,0.32v0.89c0,0.43-0.2,0.72-0.61,0.81c-0.32,0.09-0.66,0.06-0.98-0.12
		c-0.52-0.26-0.95-0.61-1.24-1.09c-0.35-0.55-0.52-1.18-0.52-1.98V1.3c0-0.66,0.38-1.01,1.09-1.01h0.86v10.16
		C56,10.94,56.14,11.34,56.45,11.6z"/>
	<path class="st0" d="M66.56,4.63C67.54,5.41,68,6.42,68,7.57v6.05h-0.58c-0.49,0-0.84-0.26-1.09-0.81c-0.78,0.78-1.9,1.09-3,1.09
		c-1.27,0-2.33-0.38-3.23-1.15c-0.98-0.78-1.44-1.76-1.44-2.91V7.57c0-1.15,0.49-2.13,1.44-2.94c0.89-0.75,1.98-1.15,3.23-1.15
		C64.55,3.48,65.64,3.89,66.56,4.63z M63.31,5.44c-0.78,0-1.44,0.23-2.01,0.69c-0.49,0.4-0.72,0.86-0.72,1.44v2.27
		c0,0.55,0.26,1.01,0.72,1.44c0.55,0.43,1.21,0.66,2.01,0.66c0.78,0,1.44-0.23,2.01-0.66c0.49-0.4,0.72-0.86,0.72-1.44V7.57
		c0-0.55-0.26-1.01-0.72-1.44C64.75,5.67,64.12,5.44,63.31,5.44z"/>
	<path class="st0" d="M82.11,4.81c0-0.66,0.38-1.01,1.07-1.01h0.86v6.05c0,1.27-0.35,2.24-1.04,2.94c-0.72,0.72-1.67,1.09-2.88,1.09
		c-1.24,0-2.21-0.43-2.94-1.27c-0.75,0.84-1.73,1.27-2.94,1.27c-1.24,0-2.19-0.38-2.88-1.09c-0.69-0.72-1.04-1.7-1.04-2.94V4.84
		c0-0.66,0.38-1.01,1.09-1.01h0.86v6.05c0,0.72,0.17,1.27,0.49,1.61c0.32,0.32,0.81,0.49,1.47,0.49c0.61,0,1.09-0.17,1.41-0.52
		c0.38-0.38,0.55-0.89,0.55-1.58V4.88c0-0.66,0.38-1.01,1.09-1.01h0.87v6.05c0,0.66,0.2,1.18,0.55,1.58
		c0.35,0.35,0.84,0.52,1.41,0.52c0.66,0,1.15-0.17,1.47-0.49c0.32-0.32,0.49-0.86,0.49-1.61L82.11,4.81L82.11,4.81z"/>
	<path class="st0" d="M95.01,3.8l-3.8,10.77c-0.09,0.26-0.2,0.49-0.29,0.72c-0.09,0.2-0.17,0.43-0.32,0.63
		c-0.26,0.4-0.63,0.72-1.09,0.98c-0.38,0.15-0.69,0.2-1.01,0.12c-0.38-0.09-0.58-0.38-0.58-0.81v-0.89c0.23,0,0.43-0.06,0.66-0.15
		c0.26-0.12,0.43-0.26,0.49-0.49l0.38-0.98c-0.61-0.15-1.01-0.46-1.18-0.95L85.4,4.68c-0.09-0.26-0.09-0.43,0-0.61
		c0.09-0.17,0.26-0.26,0.55-0.26h1.21l2.88,8.09h0.03l2.62-7.37c0.17-0.49,0.52-0.72,1.01-0.72L95.01,3.8L95.01,3.8z"/>
	<path class="st0" d="M103.04,4c0.49,0.26,0.89,0.61,1.21,1.01c0.38,0.52,0.55,1.09,0.55,1.7c0.03,0.52-0.09,1.01-0.32,1.44
		c-0.2,0.38-0.49,0.66-0.84,0.92c-0.35,0.26-0.72,0.43-1.18,0.55c-0.38,0.12-0.81,0.17-1.27,0.17h-2.36c-0.17,0-0.29,0-0.38-0.03
		c-0.15-0.03-0.26-0.09-0.32-0.15v0.81c0,0.46,0.23,0.84,0.69,1.09c0.38,0.23,0.84,0.38,1.32,0.38c0.43,0.06,0.92,0.03,1.41-0.09
		c0.35-0.09,0.66-0.2,0.92-0.4c0.09-0.06,0.15-0.15,0.26-0.23c0.29-0.35,0.66-0.4,1.15-0.17l0.95,0.46
		c-0.17,0.4-0.43,0.78-0.72,1.09c-0.43,0.43-0.98,0.78-1.67,1.01c-0.58,0.2-1.21,0.32-1.9,0.32c-0.58,0-1.09-0.06-1.5-0.15
		c-0.55-0.15-1.01-0.32-1.41-0.61c-0.49-0.32-0.84-0.75-1.09-1.3c-0.23-0.49-0.35-1.07-0.35-1.67V6.99c0-0.49,0.12-0.98,0.32-1.44
		c0.32-0.69,0.89-1.21,1.64-1.58c0.66-0.32,1.44-0.49,2.27-0.49C101.31,3.48,102.24,3.6,103.04,4z M102.32,7.63
		c0.32-0.17,0.49-0.43,0.55-0.81c0.03-0.38-0.09-0.66-0.38-0.89c-0.38-0.32-0.95-0.43-1.44-0.49c-0.55-0.03-1.07,0.03-1.5,0.12
		c-0.4,0.09-0.72,0.26-0.98,0.46c-0.29,0.26-0.43,0.55-0.43,0.92v0.92h3.23C101.74,7.86,102.06,7.8,102.32,7.63z"/>
	<path class="st0" d="M106.67,7.23c0-1.15,0.38-2.04,1.12-2.65c0.61-0.52,1.35-0.78,2.21-0.78h1.27v0.86c0,0.72-0.32,1.09-1.01,1.09
		h-0.26c-0.35,0-0.66,0.12-0.92,0.32c-0.32,0.26-0.46,0.66-0.46,1.15v6.36h-0.86c-0.72,0-1.09-0.35-1.09-1.01L106.67,7.23
		L106.67,7.23z"/>
	<path class="st0" d="M124.06,5.93c-0.32-0.32-0.81-0.49-1.47-0.49c-0.61,0-1.09,0.17-1.44,0.55c-0.38,0.4-0.55,0.92-0.55,1.58v6.05
		h-0.86c-0.72,0-1.09-0.35-1.09-1.01V7.6c0-0.66-0.17-1.18-0.55-1.58c-0.35-0.38-0.84-0.55-1.44-0.55c-0.66,0-1.18,0.17-1.5,0.49
		c-0.32,0.38-0.49,0.89-0.49,1.61v6.05h-0.86c-0.72,0-1.09-0.35-1.09-1.01V7.61c0-1.24,0.35-2.21,1.04-2.94
		c0.69-0.75,1.67-1.12,2.88-1.12c1.01,0,1.87,0.32,2.56,0.89c0.09,0.06,0.2,0.2,0.38,0.38c0.15-0.15,0.26-0.26,0.38-0.38
		c0.66-0.61,1.55-0.89,2.59-0.89c1.21,0,2.19,0.38,2.88,1.12c0.69,0.72,1.04,1.73,1.04,2.94v6.05h-0.86c-0.72,0-1.09-0.35-1.09-1.01
		V7.64C124.58,6.85,124.4,6.3,124.06,5.93z"/>
	<path class="st0" d="M136.41,4.63c0.98,0.78,1.44,1.78,1.44,2.94v6.05h-0.58c-0.49,0-0.84-0.26-1.09-0.81
		c-0.81,0.78-1.9,1.09-3,1.09c-1.27,0-2.33-0.38-3.23-1.15c-0.98-0.78-1.44-1.76-1.44-2.91V7.57c0-1.15,0.49-2.13,1.44-2.94
		c0.89-0.75,1.98-1.15,3.23-1.15C134.42,3.48,135.49,3.89,136.41,4.63z M133.19,5.44c-0.78,0-1.44,0.23-2.01,0.69
		c-0.49,0.4-0.72,0.86-0.72,1.44v2.27c0,0.55,0.26,1.01,0.72,1.44c0.55,0.43,1.21,0.66,2.01,0.66c0.81,0,1.44-0.23,2.01-0.66
		c0.49-0.4,0.72-0.86,0.72-1.44V7.57c0-0.55-0.26-1.01-0.72-1.44C134.62,5.67,133.96,5.44,133.19,5.44z"/>
	<path class="st0" d="M140.15,7.23c0-1.15,0.38-2.04,1.12-2.65c0.61-0.52,1.35-0.78,2.21-0.78h1.27v0.86c0,0.72-0.32,1.09-1.01,1.09
		h-0.26c-0.35,0-0.66,0.12-0.92,0.32c-0.32,0.26-0.46,0.66-0.46,1.15v6.36h-0.86c-0.72,0-1.09-0.35-1.09-1.01V7.23L140.15,7.23z"/>
	<path class="st0" d="M146.43,1.32c0-0.66,0.38-1.01,1.09-1.01h0.86v7.57h0.72c0.38,0,0.75,0.03,0.98-0.38l1.84-3
		c0.29-0.46,0.69-0.69,1.18-0.69h1.53l-2.33,3.8c-0.15,0.2-0.26,0.4-0.38,0.55c0.63,0.29,1.15,0.84,1.47,1.61l1.67,3.8h-1.27
		c-0.58,0-0.98-0.2-1.15-0.61l-1.07-2.42c-0.2-0.49-0.58-0.72-1.09-0.72h-2.1v3.77h-0.86c-0.72,0-1.09-0.35-1.09-1.01L146.43,1.32
		L146.43,1.32z"/>
	<path class="st0" d="M163.1,4c0.49,0.26,0.89,0.61,1.21,1.01c0.38,0.52,0.55,1.09,0.55,1.7c0.03,0.52-0.09,1.01-0.32,1.44
		c-0.2,0.38-0.49,0.66-0.84,0.92c-0.35,0.26-0.72,0.43-1.18,0.55c-0.38,0.12-0.81,0.17-1.27,0.17h-2.36c-0.17,0-0.29,0-0.38-0.03
		c-0.15-0.03-0.26-0.09-0.32-0.15v0.81c0,0.46,0.23,0.84,0.69,1.09c0.38,0.23,0.84,0.38,1.32,0.38c0.43,0.06,0.92,0.03,1.41-0.09
		c0.35-0.09,0.66-0.2,0.92-0.4c0.09-0.06,0.15-0.15,0.26-0.23c0.29-0.35,0.66-0.4,1.15-0.17l0.95,0.46
		c-0.17,0.4-0.43,0.78-0.72,1.09c-0.43,0.43-0.98,0.78-1.67,1.01c-0.58,0.2-1.21,0.32-1.9,0.32c-0.58,0-1.09-0.06-1.5-0.15
		c-0.55-0.15-1.01-0.32-1.41-0.61c-0.49-0.32-0.84-0.75-1.09-1.3c-0.23-0.49-0.35-1.07-0.35-1.67V6.99c0-0.49,0.12-0.98,0.32-1.44
		c0.32-0.69,0.89-1.21,1.64-1.58c0.66-0.32,1.44-0.49,2.27-0.49C161.37,3.48,162.29,3.6,163.1,4z M162.38,7.63
		c0.32-0.17,0.49-0.43,0.55-0.81c0.03-0.38-0.09-0.66-0.38-0.89c-0.38-0.32-0.95-0.43-1.44-0.49c-0.55-0.03-1.07,0.03-1.5,0.12
		c-0.4,0.09-0.72,0.26-0.98,0.46c-0.29,0.26-0.43,0.55-0.43,0.92v0.92h3.23C161.8,7.86,162.12,7.8,162.38,7.63z"/>
	<path class="st0" d="M171.07,3.8v0.86c0,0.72-0.35,1.09-1.01,1.09h-1.27v4.69c0,0.49,0.15,0.89,0.46,1.15
		c0.26,0.2,0.55,0.32,0.89,0.32v0.89c0,0.43-0.2,0.72-0.58,0.81c-0.32,0.09-0.66,0.06-1.01-0.12c-0.52-0.26-0.95-0.61-1.24-1.09
		c-0.32-0.55-0.49-1.18-0.49-1.98V1.3c0-0.66,0.35-1.01,1.07-1.01h0.89V3.8L171.07,3.8L171.07,3.8z"/>
	<path class="st0" d="M178.59,4.58c0.86-0.72,1.9-1.09,3.08-1.09c1.18,0,2.24,0.38,3.11,1.09c0.92,0.78,1.38,1.73,1.38,2.79v6.19
		h-0.86c-0.72,0-1.09-0.35-1.09-1.01V7.37c0-0.49-0.23-0.95-0.66-1.3c-0.49-0.43-1.12-0.63-1.84-0.63c-0.72,0-1.35,0.2-1.84,0.63
		c-0.43,0.38-0.66,0.81-0.66,1.3v6.19h-0.86c-0.72,0-1.09-0.35-1.09-1.01V7.37C177.2,6.28,177.66,5.36,178.59,4.58z"/>
	<path class="st0" d="M196.06,4.63c0.95,0.78,1.44,1.78,1.44,2.94v5.93c0,0.61-0.12,1.15-0.38,1.61c-0.49,0.98-1.44,1.61-2.45,1.9
		c-0.52,0.15-1.09,0.23-1.7,0.23c-0.52,0-1.01-0.06-1.5-0.15c-0.43-0.09-0.75-0.26-0.89-0.49c-0.12-0.2-0.15-0.46-0.03-0.81
		l0.17-0.78c0.43,0.2,1.01,0.32,1.73,0.32c0.63,0.03,1.21-0.06,1.73-0.2c0.95-0.26,1.41-0.81,1.41-1.67V13.1
		c-0.81,0.52-1.73,0.78-2.74,0.78c-1.24,0-2.33-0.38-3.23-1.15c-0.95-0.78-1.44-1.76-1.44-2.91V7.54c0-1.15,0.49-2.13,1.44-2.94
		c0.92-0.75,1.98-1.15,3.23-1.15C194.05,3.48,195.14,3.89,196.06,4.63z M192.81,5.44c-0.78,0-1.44,0.23-2.01,0.69
		c-0.49,0.4-0.72,0.86-0.72,1.44v2.27c0,0.55,0.26,1.01,0.72,1.44c0.55,0.43,1.21,0.66,2.01,0.66c0.78,0,1.44-0.23,2.01-0.66
		c0.49-0.4,0.72-0.86,0.72-1.44V7.57c0-0.55-0.26-1.01-0.72-1.44C194.28,5.67,193.62,5.44,192.81,5.44z"/>
	<path class="st0" d="M51.36,0.95c0,0.52-0.43,0.95-0.95,0.95c-0.52,0-0.95-0.43-0.95-0.95S49.89,0,50.41,0S51.36,0.43,51.36,0.95z"
		/>
	<path class="st0" d="M172.77,4.9c0-0.66,0.38-1.01,1.09-1.01h0.86v9.79h-0.86c-0.72,0-1.09-0.35-1.09-1.01V4.9z"/>
	<path class="st0" d="M174.64,1.04c0,0.52-0.43,0.95-0.95,0.95c-0.52,0-0.95-0.43-0.95-0.95s0.43-0.95,0.95-0.95
		C174.21,0.06,174.64,0.49,174.64,1.04z"/>
</g>
<g>
	<path class="st0" d="M1.5,12c-0.48-0.21-0.85-0.5-1.11-0.88C0.13,10.74,0,10.3,0,9.8V9.53c0-0.04,0.02-0.08,0.04-0.1
		C0.07,9.4,0.1,9.39,0.14,9.39h1.37c0.04,0,0.08,0.02,0.1,0.04c0.03,0.03,0.04,0.06,0.04,0.1v0.18c0,0.32,0.15,0.59,0.45,0.81
		s0.7,0.33,1.2,0.33c0.43,0,0.74-0.09,0.95-0.27s0.31-0.4,0.31-0.67c0-0.19-0.07-0.36-0.19-0.49C4.24,9.3,4.07,9.18,3.85,9.08
		C3.63,8.98,3.28,8.84,2.8,8.66C2.26,8.48,1.81,8.29,1.44,8.1C1.07,7.9,0.75,7.65,0.5,7.31C0.25,6.98,0.12,6.57,0.12,6.08
		c0-0.48,0.13-0.9,0.37-1.26c0.25-0.36,0.59-0.64,1.03-0.83c0.44-0.19,0.95-0.29,1.53-0.29c0.61,0,1.15,0.11,1.63,0.33
		C5.16,4.23,5.53,4.54,5.8,4.93c0.27,0.39,0.4,0.84,0.4,1.35v0.18c0,0.04-0.02,0.08-0.04,0.1C6.13,6.59,6.1,6.6,6.06,6.6H4.68
		c-0.04,0-0.08-0.02-0.1-0.04C4.55,6.53,4.54,6.5,4.54,6.46v-0.1c0-0.34-0.14-0.62-0.42-0.86C3.85,5.27,3.47,5.15,2.99,5.15
		c-0.38,0-0.67,0.08-0.88,0.24C1.89,5.55,1.78,5.77,1.78,6.05c0,0.2,0.06,0.37,0.19,0.51c0.13,0.14,0.31,0.26,0.55,0.37
		c0.25,0.11,0.62,0.26,1.14,0.44C4.23,7.57,4.67,7.75,5,7.91c0.33,0.16,0.62,0.4,0.88,0.72c0.26,0.32,0.39,0.73,0.39,1.23
		c0,0.75-0.28,1.35-0.83,1.78s-1.3,0.66-2.25,0.66C2.55,12.31,1.98,12.21,1.5,12z"/>
	<path class="st0" d="M8.34,12.17c-0.03-0.03-0.04-0.06-0.04-0.1V3.94c0-0.04,0.02-0.08,0.04-0.1C8.36,3.81,8.4,3.8,8.44,3.8h1.41
		c0.04,0,0.08,0.02,0.1,0.04c0.03,0.03,0.04,0.06,0.04,0.1v8.13c0,0.04-0.02,0.08-0.04,0.1c-0.03,0.03-0.06,0.04-0.1,0.04H8.44
		C8.4,12.21,8.37,12.2,8.34,12.17z"/>
	<path class="st0" d="M17.97,3.84c0.03,0.03,0.04,0.06,0.04,0.1v1.18c0,0.04-0.02,0.08-0.04,0.1c-0.03,0.03-0.06,0.04-0.1,0.04
		h-2.15c-0.04,0-0.06,0.02-0.06,0.06v6.74c0,0.04-0.02,0.08-0.04,0.1c-0.03,0.03-0.06,0.04-0.1,0.04h-1.41
		c-0.04,0-0.08-0.02-0.1-0.04c-0.03-0.03-0.04-0.06-0.04-0.1V5.32c0-0.04-0.02-0.06-0.06-0.06h-2.09c-0.04,0-0.08-0.02-0.1-0.04
		c-0.03-0.03-0.04-0.06-0.04-0.1V3.94c0-0.04,0.02-0.08,0.04-0.1c0.03-0.03,0.06-0.04,0.1-0.04h6.06
		C17.91,3.79,17.94,3.81,17.97,3.84z"/>
	<path class="st0" d="M25.5,5.21c-0.03,0.03-0.06,0.04-0.1,0.04h-3.94c-0.04,0-0.06,0.02-0.06,0.06v1.86c0,0.04,0.02,0.06,0.06,0.06
		h2.59c0.04,0,0.08,0.02,0.1,0.04c0.03,0.03,0.04,0.06,0.04,0.1v1.17c0,0.04-0.02,0.08-0.04,0.1c-0.03,0.03-0.06,0.04-0.1,0.04
		h-2.59c-0.04,0-0.06,0.02-0.06,0.06v1.95c0,0.04,0.02,0.06,0.06,0.06h3.94c0.04,0,0.08,0.02,0.1,0.04c0.03,0.03,0.04,0.06,0.04,0.1
		v1.17c0,0.04-0.02,0.08-0.04,0.1c-0.03,0.03-0.06,0.04-0.1,0.04h-5.56c-0.04,0-0.08-0.02-0.1-0.04c-0.03-0.03-0.04-0.06-0.04-0.1
		V3.94c0-0.04,0.02-0.08,0.04-0.1c0.03-0.03,0.06-0.04,0.1-0.04h5.56c0.04,0,0.08,0.02,0.1,0.04c0.03,0.03,0.04,0.06,0.04,0.1v1.17
		C25.54,5.15,25.53,5.18,25.5,5.21z"/>
	<path class="st0" d="M35.32,7.9c0.76,0.39,1.14,1.05,1.14,1.96c0,0.78-0.27,1.36-0.79,1.76c-0.53,0.4-1.22,0.6-2.08,0.6h-3.12
		c-0.04,0-0.08-0.02-0.1-0.04c-0.03-0.03-0.04-0.06-0.04-0.1V3.94c0-0.04,0.02-0.08,0.04-0.1c0.03-0.03,0.06-0.04,0.1-0.04h3.02
		c1.9,0,2.85,0.77,2.85,2.31c0,0.8-0.34,1.38-1.02,1.72C35.27,7.85,35.27,7.87,35.32,7.9z M32.02,5.31v1.87
		c0,0.04,0.02,0.06,0.06,0.06h1.41c0.38,0,0.67-0.09,0.88-0.27c0.21-0.18,0.31-0.42,0.31-0.72c0-0.31-0.11-0.56-0.31-0.74
		c-0.21-0.18-0.5-0.27-0.88-0.27h-1.41C32.04,5.25,32.02,5.27,32.02,5.31z M34.45,10.46c0.21-0.19,0.31-0.45,0.31-0.78
		c0-0.33-0.11-0.59-0.31-0.78s-0.5-0.28-0.88-0.28h-1.49c-0.04,0-0.06,0.02-0.06,0.06v1.99c0,0.04,0.02,0.06,0.06,0.06h1.5
		C33.96,10.75,34.24,10.65,34.45,10.46z"/>
	<path class="st0" d="M40.06,12.16c-0.03-0.03-0.04-0.06-0.04-0.1V9.02c0-0.03-0.01-0.06-0.01-0.07l-2.49-4.99
		c-0.02-0.03-0.03-0.06-0.03-0.07c0-0.07,0.05-0.1,0.13-0.1h1.51c0.08,0,0.14,0.04,0.17,0.11l1.5,3.2c0.03,0.05,0.05,0.05,0.07,0
		l1.5-3.2c0.03-0.07,0.09-0.11,0.17-0.11h1.54c0.06,0,0.1,0.02,0.12,0.04c0.02,0.03,0.02,0.07-0.01,0.13l-2.5,4.98
		C41.7,8.96,41.7,8.98,41.7,9.01v3.04c0,0.04-0.02,0.08-0.04,0.1c-0.03,0.03-0.06,0.04-0.1,0.04h-1.39
		C40.12,12.2,40.09,12.19,40.06,12.16z"/>
</g>
</svg>
