<?xml version="1.0" encoding="utf-8"?>
<!-- Generator: Adobe Illustrator 24.0.1, SVG Export Plug-In . SVG Version: 6.00 Build 0)  -->
<svg version="1.1" id="bull_x5F_skull" xmlns="http://www.w3.org/2000/svg" xmlns:xlink="http://www.w3.org/1999/xlink" x="0px"
	 y="0px" width="36.15px" height="32.81px" viewBox="0 0 36.15 32.81" style="enable-background:new 0 0 36.15 32.81;"
	 xml:space="preserve">
<style type="text/css">
	.st0{fill:#EEB82F;}
</style>
<g>
	<path class="st0" d="M12.83,4.46c0.05-0.37-0.21-0.71-0.58-0.76c-0.36-0.05-0.71,0.21-0.76,0.58c-0.02,0.18-0.05,0.38-0.07,0.58
		c-0.26,2.47-0.07,5.06,0.56,7.7c0.07,0.31,0.35,0.52,0.66,0.52c0.05,0,0.1-0.01,0.16-0.02c0.36-0.09,0.59-0.45,0.5-0.81
		C12.71,9.76,12.53,7.32,12.77,5C12.79,4.81,12.81,4.64,12.83,4.46z"/>
	<path class="st0" d="M27.9,31.46h-2.75v-4.28c0-1-0.8-1.95-1.79-2.11c0,0,0,0,0,0c-3.51-0.54-7.06-0.54-10.58,0
		C11.8,25.23,11,26.18,11,27.18v4.28H8.23c-0.37,0-0.67,0.3-0.67,0.67s0.3,0.67,0.67,0.67h3.44h12.81h3.42
		c0.37,0,0.67-0.3,0.67-0.67S28.28,31.46,27.9,31.46z M12.35,31.46v-4.28c0-0.34,0.32-0.72,0.65-0.77c3.37-0.52,6.79-0.52,10.16,0
		c0.34,0.05,0.65,0.42,0.65,0.77v4.28H12.35z"/>
	<path class="st0" d="M35.61,5.23c-1.09-2.01-3.47-2.88-7.06-2.63c-0.06-0.37-0.13-0.72-0.19-1.02l-0.03-0.13
		c-0.04-0.29-0.26-0.53-0.55-0.58c-6.44-1.15-12.97-1.15-19.41,0c-0.3,0.05-0.52,0.29-0.55,0.58L7.79,1.57
		C7.73,1.88,7.66,2.23,7.6,2.6C4.02,2.35,1.63,3.23,0.55,5.23c-0.78,1.44-1.81,5.23,5.52,9.24l0.23,0.13
		c1.19,0.65,3.41,1.86,4.98,3.08c0.04,0.03,0.08,0.05,0.12,0.07c0.03,0.02,0.05,0.05,0.07,0.07c1.96,1.62,3.34,3.24,3.98,4.67
		c0.15,0.34,0.55,0.49,0.89,0.34c0.34-0.15,0.49-0.55,0.34-0.89c-0.73-1.64-2.2-3.38-4.35-5.16C7.57,12.94,8.4,5.44,9.06,2.11
		c5.99-1.02,12.05-1.02,18.03,0c0.66,3.32,1.49,10.82-3.27,14.66c-2.15,1.78-3.61,3.52-4.35,5.16c-0.15,0.34,0,0.74,0.34,0.89
		c0.09,0.04,0.18,0.06,0.27,0.06c0.26,0,0.5-0.15,0.62-0.4c0.64-1.43,2.01-3.05,3.97-4.67c0.03-0.02,0.05-0.05,0.08-0.07
		c0.04-0.02,0.08-0.04,0.12-0.07c1.56-1.22,3.79-2.44,4.98-3.09l0.23-0.12C37.42,10.46,36.39,6.67,35.61,5.23z M8.76,14.42
		c-0.7-0.4-1.34-0.75-1.81-1.01l-0.23-0.12C2.3,10.87,0.49,8.17,1.73,5.88c0.98-1.8,3.49-2.08,5.67-1.95
		C7.04,6.88,7.02,11.01,8.76,14.42z M29.44,13.28l-0.22,0.12c-0.48,0.26-1.12,0.61-1.82,1.02c1.74-3.41,1.72-7.54,1.36-10.49
		c2.17-0.14,4.69,0.15,5.67,1.95C35.66,8.17,33.85,10.87,29.44,13.28z"/>
</g>
</svg>
