<svg enable-background="new 0 0 36.15 32.81" height="32.81" viewBox="0 0 36.15 32.81" width="36.15" xmlns="http://www.w3.org/2000/svg"><g fill="#eeb82f"><path d="m12.83 4.46c.05-.37-.21-.71-.58-.76-.36-.05-.71.21-.76.58-.02.18-.05.38-.07.58-.26 2.47-.07 5.06.56 7.7.07.31.35.52.66.52.05 0 .1-.01.16-.02.36-.09.59-.45.5-.81-.59-2.49-.77-4.93-.53-7.25.02-.19.04-.36.06-.54z"/><path d="m27.9 31.46h-2.75v-4.28c0-1-.8-1.95-1.79-2.11-3.51-.54-7.06-.54-10.58 0-.98.16-1.78 1.11-1.78 2.11v4.28h-2.77c-.37 0-.67.3-.67.67s.3.67.67.67h3.44 12.81 3.42c.37 0 .67-.3.67-.67s-.29-.67-.67-.67zm-15.55 0v-4.28c0-.34.32-.72.65-.77 3.37-.52 6.79-.52 10.16 0 .34.05.65.42.65.77v4.28z"/><path d="m35.61 5.23c-1.09-2.01-3.47-2.88-7.06-2.63-.06-.37-.13-.72-.19-1.02l-.03-.13c-.04-.29-.26-.53-.55-.58-6.44-1.15-12.97-1.15-19.41 0-.3.05-.52.29-.55.58l-.03.12c-.06.31-.13.66-.19 1.03-3.58-.25-5.97.63-7.05 2.63-.78 1.44-1.81 5.23 5.52 9.24l.23.13c1.19.65 3.41 1.86 4.98 3.08.04.03.08.05.12.07.03.02.05.05.07.07 1.96 1.62 3.34 3.24 3.98 4.67.15.34.55.49.89.34s.49-.55.34-.89c-.73-1.64-2.2-3.38-4.35-5.16-4.76-3.84-3.93-11.34-3.27-14.67 5.99-1.02 12.05-1.02 18.03 0 .66 3.32 1.49 10.82-3.27 14.66-2.15 1.78-3.61 3.52-4.35 5.16-.15.34 0 .74.34.89.09.04.18.06.27.06.26 0 .5-.15.62-.4.64-1.43 2.01-3.05 3.97-4.67.03-.02.05-.05.08-.07.04-.02.08-.04.12-.07 1.56-1.22 3.79-2.44 4.98-3.09l.23-.12c7.34-4 6.31-7.79 5.53-9.23zm-26.85 9.19c-.7-.4-1.34-.75-1.81-1.01l-.23-.12c-4.42-2.42-6.23-5.12-4.99-7.41.98-1.8 3.49-2.08 5.67-1.95-.36 2.95-.38 7.08 1.36 10.49zm20.68-1.14-.22.12c-.48.26-1.12.61-1.82 1.02 1.74-3.41 1.72-7.54 1.36-10.49 2.17-.14 4.69.15 5.67 1.95 1.23 2.29-.58 4.99-4.99 7.4z"/></g></svg>