<?xml version="1.0" encoding="utf-8"?>
<!-- Generator: Adobe Illustrator 24.0.3, SVG Export Plug-In . SVG Version: 6.00 Build 0)  -->
<svg version="1.1" id="Icons" xmlns="http://www.w3.org/2000/svg" xmlns:xlink="http://www.w3.org/1999/xlink" x="0px" y="0px"
	 width="96.6px" height="78.5px" viewBox="0 0 96.6 78.5" style="enable-background:new 0 0 96.6 78.5;" xml:space="preserve">
<path d="M96.6,9.3c-3.6,1.6-7.4,2.6-11.4,3.1c4.1-2.5,7.2-6.3,8.7-11c-3.8,2.3-8.1,3.9-12.6,4.8C77.7,2.4,72.6,0,66.9,0
	C55.9,0,47,8.9,47,19.8c0,1.6,0.2,3.1,0.5,4.5C31.1,23.5,16.5,15.6,6.7,3.6C5,6.6,4,10,4,13.6c0,6.9,3.5,12.9,8.8,16.5
	c-3.2-0.1-6.3-1-9-2.5c0,0.1,0,0.2,0,0.2c0,9.6,6.8,17.6,15.9,19.4c-1.7,0.5-3.4,0.7-5.2,0.7c-1.3,0-2.5-0.1-3.7-0.4
	c2.5,7.9,9.8,13.6,18.5,13.8c-6.8,5.3-15.3,8.5-24.6,8.5c-1.6,0-3.2-0.1-4.7-0.3c8.8,5.6,19.2,8.9,30.4,8.9
	c36.4,0,56.4-30.2,56.4-56.4c0-0.9,0-1.7-0.1-2.6C90.6,16.8,93.9,13.3,96.6,9.3z"/>
</svg>
