<svg id="cactus" enable-background="new 0 0 60.62 59.93" height="59.93" viewBox="0 0 60.62 59.93" width="60.62" xmlns="http://www.w3.org/2000/svg"><path d="m43.63 59.6c-.36 0-.73-.09-1.1-.27-.2-.07-.32-.12-.44-.19l-1.31-.56c-.26-.07-.43-.12-.65-.19-.1-.03-.21-.07-.32-.09 0 0-.54-.13-.63-.15l-.55-.15c-.82-.2-1.49-.44-2.12-.75-.42-.21-.8-.42-1.15-.63l-.91-.52c-.19-.11-.36-.23-.6-.4-.57-.41-1.41-1.05-2.06-1.96-.37-.52-.62-1.12-.81-1.61-.05-.13-.09-.23-.14-.34-.13-.31-.24-.62-.35-.92l-.21-.58-.37-.22c-.22-.13-.58-.34-.92-.7-.17-.18-.33-.38-.49-.59l-.12-.15-.58-.42c-.19-.13-.44-.31-.69-.55-.34-.33-.55-.68-.7-.94-.24-.44-.45-.92-.62-1.43-.13-.41-.28-.88-.39-1.39-.14-.67-.33-1.2-.57-1.63-.35-.63-.48-.76-.54-.81l-.13-.1c-.15-.09-.3-.21-.49-.34-.14-.1-.23-.17-.33-.23-.14-.09-.3-.17-.5-.28l-.39-.21c-.27-.15-.48-.27-.68-.33l-.17-.06-.39.04-.3.12c-.25.1-.43.2-.54.3-.05.04-.13.11-.29.29-.23.25-.44.46-.69.68 0 0-.31.28-.43.39-.16.14-.39.35-.7.53-.14.09-.29.16-.47.25l-.13.07c-.21.13-.53.33-1 .44-.33.08-.67.13-1.03.13-.11 0-.21 0-.32-.01-.37-.03-.94-.1-1.52-.44-.36-.21-.6-.44-.8-.63-.23-.21-.51-.48-.82-.82l-1.26-.94c-.12-.07-.21-.13-.35-.23l-.16-.09c-.61-.35-1.54-.89-2.06-1.99-.11-.24-.18-.45-.24-.61l-.05-.14c-.11-.32-.21-.65-.31-1l-.04-.3c-.11-.38-.19-.67-.26-.97l-.12-.37c-.1-.3-.18-.54-.28-.79l-.26-.58c-.14-.27-.33-.61-.45-.79l-.07-.1-.79-.45c-.17-.09-.35-.19-.52-.29l-.29-.17c-.34-.19-.7-.4-1.07-.71-.77-.58-1.31-1.44-1.6-2.55l-.06-.23-.23-.22c-.17-.12-.32-.26-.47-.41-.53-.53-.85-1.19-.9-1.87-.02-.28.01-.5.02-.67.08-.8.39-1.47.92-1.95.17-.16.36-.29.61-.42.09-.06.15-.09.2-.11.52-.25 1.03-.26 1.4-.28.49-.03.99-.03 1.32-.03h11.32l.02-.81c.01-.46.03-.92.05-1.37.03-.72.05-1.45.06-2.17l.01-.25c.01-.55.02-1.02.04-1.49.01-.31.02-.63.03-1 .01-.66.02-1.15.04-1.64.04-.82.06-1.68.08-2.55.01-.44.02-.88.04-1.32 0-.07.04-1.02.04-1.31l.02-.91c.03-1.25.06-2.48.11-3.71l.01-.16c-.06-.96.21-1.7.81-2.21.38-.33.88-.54 1.41-.59.16-.02.35-.02.56-.02h.37c.06 0 .13 0 .21-.01.22-.01.35-.01.48-.01h.75c.17 0 .35 0 .52-.01.19-.01.37-.01.55-.01h.66.25c.51-.02 1.04-.02 1.55-.03.41 0 .77 0 1.13-.01h.2c.5-.01.99-.02 1.49-.02h.19c.39 0 .78-.01 1.17-.02h.97c.14 0 .28 0 .48-.01.17-.01.26-.01.35-.01 1.65 0 2.26 1.14 2.41 1.48.19.45.2.88.21 1.19.05.52.05 1.08.04 1.56v.3c.01.29.02.53-.02.83l-.01.21.01.17c.01.15.02.33.01.52-.02.74-.01 1.53 0 2.36l.03 1.95 1-.04c.24 0 .49.03.7.08.42.1.75.28 1 .41.09.04.16.08.22.12l.1.06.24.06c.15.02.28.03.41.06.62.1 1.11.3 1.46.46l.18.08.28-.02c.17-.02.31-.03.45-.03.76 0 1.3.25 1.72.5l.63.38.59-.23c.58-.2 1.17-.23 1.72-.23h.14c.19 0 .45.01.75.07.08.02.17.04.29.08l.58.15.42-.13c.11-.04.35-.14.69-.18.06-.01.27-.02.28-.02l.22-.09c.45-.25.86-.38 1.31-.44.2-.02.41-.04.61-.04.38 0 .75.04 1.1.12.69.16 1.33.42 1.84.62.25.1.47.2.69.29l.29.13c.33.15.69.31 1.13.55l.17.08c.5.22.94.54 1.23.75l.11.08c.55.4.94.9 1.2 1.53.36.89.35 1.88.33 2.68 0 .23-.01.39 0 .55 0 .1.01.2.03.37.02.2.03.33.04.46.03.43.04.85.04 1.29 0 .49.01.86.03 1.16l.01.11.18.37c.48.55.76 1.04.99 1.46l.16.27c.15.25.34.56.49.91.13.29.24.58.36.95.25.74.32 1.67.23 2.79l-.01.2c-.01.2-.03.47-.08.79l-.03.2c.01.08.14.39.16.46.15.4.21.82.2 1.27-.02.56-.13 1.06-.22 1.42-.02.1-.04.19-.08.35-.06.31-.14.74-.32 1.16-.21.52-.55.9-.78 1.14-.61.77-1.32 1.29-2.13 1.58-.35.12-.74.21-1.16.26l-.32.04-.21.24c-.21.24-.42.39-.55.5-.27.21-.54.38-.88.58-.23.13-.47.29-.73.47l-.43.3c-.16.13-.27.22-.43.35l-.35.2c-.13.1-.21.16-.29.23-.1.09-.2.18-.3.26-.17.13-.35.26-.6.43-.11.07-.21.15-.32.23-.19.14-.37.29-.54.43-.25.2-.48.35-.69.48l-.14.09c-.35.23-.73.42-1.04.56l-.31.16-.12.12c-.22.24-.45.47-.7.69-.26.23-.47.42-.69.6l-.09.08-.13.21c-.05.11-.1.2-.14.29l-.05.09-.04.23c-.02.34-.06.64-.1.92-.05.3-.11.69-.21 1.07-.11.42-.27.79-.38 1.04-.08.18-.13.3-.16.38l-.04.13c-.01.26-.02.41-.01.51.01.09.02.18.04.29.04.26.06.42.08.58.02.18.04.37.06.6.07.77.12 1.31.23 1.63.05.15.14.36.24.58.12.27.22.48.31.7l.06.15c.09.22.2.49.29.79.11.37.24.96.17 1.68-.13 1.36-1.18 2.37-2.5 2.37zm-22.23-21.59c.34 0 .7.11.98.21.36.13.65.29.96.46l.37.2c.22.12.42.22.6.34.16.1.3.21.44.31.19.13.31.22.44.31.56.36.93.99 1.24 1.54.33.59.57 1.27.76 2.13.09.41.21.8.34 1.2s.29.78.48 1.12c.09.16.21.35.37.51.11.11.25.22.46.37l.16.1c.12.09.21.15.3.21.03.01.19.11.22.14.03.02.09.1.12.12.1.11.18.22.27.33.17.21.29.37.43.51.15.16.34.27.5.37.45.26.87.53 1.05.94.11.24.21.51.3.78.12.35.22.61.32.84.06.14.12.28.18.43.17.43.34.84.58 1.18.49.68 1.17 1.2 1.7 1.58.15.1.27.19.4.27.15.08.88.49.95.54.28.18.61.36.99.55.51.25 1.06.45 1.75.61.14.03.58.15.58.15l.63.15c.1.03.44.13.44.13.18.05.31.09.5.14.28.08.52.14.73.23.09.04.18.09.27.14l.46.22c.1.05.18.08.26.13l.26.1 1.08.33.01-1.11c0-.33-.05-.58-.12-.79-.05-.19-.13-.38-.22-.6l-.06-.16c-.08-.2-.17-.39-.26-.58-.13-.28-.25-.54-.34-.82-.17-.54-.24-1.25-.3-1.93-.02-.26-.04-.46-.06-.67-.01-.12-.03-.24-.05-.36-.04-.24-.06-.39-.07-.53-.02-.26-.01-.5-.01-.73l.01-.2c0-.05.02-.11.08-.3.07-.26.17-.48.26-.69.13-.29.23-.53.3-.79.08-.29.13-.62.17-.88.04-.29.08-.61.09-.96l.01-.27c.02-.1.09-.28.19-.44.15-.23.22-.4.28-.57.05-.12.08-.21.13-.3l.09-.11c.34-.22.69-.53 1.02-.83.23-.2.42-.41.57-.57l.11-.12c.05-.07.08-.1.12-.14.06-.05.13-.1.25-.17.16-.09.32-.17.47-.25.39-.19.66-.33.91-.49l.12-.08c.21-.13.37-.24.53-.37.19-.15.38-.31.58-.46.13-.1.27-.2.41-.29.24-.17.38-.26.51-.37.06-.04.11-.09.16-.14l.11-.1c.11-.08.64-.5.67-.52.08-.06.16-.13.23-.19l.36-.27.27-.18c.28-.19.58-.39.88-.57.28-.16.49-.29.7-.46.11-.08.22-.17.31-.28l.23-.29c.15-.19.28-.29.46-.36.24-.09.49-.15.76-.17.38-.03.7-.09.97-.19.46-.16.89-.47 1.2-.87.07-.1.15-.18.22-.25.15-.16.31-.33.4-.56.1-.26.16-.54.23-.89.02-.12.05-.23.08-.35.09-.37.17-.69.18-1.05.01-.29-.05-.47-.09-.58-.03-.07-.16-.38-.16-.38-.03-.08-.06-.16-.11-.33-.08-.26-.04-.45.03-.74.05-.22.07-.47.09-.73l.02-.27c.05-.59.07-1.42-.14-2.04-.1-.3-.19-.55-.3-.79s-.24-.47-.38-.7c-.1-.17-.15-.26-.2-.34-.19-.34-.4-.71-.67-1l-.09-.1c-.06-.06-.1-.1-.13-.15-.07-.1-.14-.2-.24-.36-.08-.12-.17-.25-.19-.43l-.01-.14c-.01-.07-.02-.16-.04-.25-.01-.06-.02-.13-.03-.2-.04-.43-.04-.88-.04-1.32s-.01-.83-.03-1.19l-.03-.36c-.02-.22-.04-.41-.04-.59l.01-.59c.01-.73.02-1.42-.2-1.96-.13-.33-.3-.54-.57-.73l-.1-.08c-.3-.21-.58-.42-.96-.58l-.26-.12c-.33-.19-.66-.34-.97-.48l-.33-.15c-.21-.1-.39-.18-.62-.27-.48-.19-1.01-.4-1.55-.53-.21-.05-.44-.08-.67-.08-.13 0-.26.01-.4.02-.37.04-.65.21-.88.36-.1.07-.19.11-.28.15l-.16.08-.95-.11-.11.15c-.06.08-.12.16-.15.18-.14.06-.2.08-.25.09s-.11.01-.17.01-.12 0-.17-.01c-.29-.04-.55-.11-.79-.18l-.48-.12c-.12-.03-.2-.03-.35-.03h-.21c-.4 0-.73.02-1.04.13-.13.05-.26.1-.4.17-.25.11-.56.25-.86.25-.07 0-.14-.01-.2-.02-.19-.04-.4-.14-.61-.28-.19-.12-.43-.27-.66-.41-.21-.12-.47-.26-.8-.26l-.17.08-.22.03c-.23.04-.39.06-.59.07l-.37-.15c-.37-.18-.79-.39-1.32-.47-.2-.03-.39-.05-.55-.06-.24-.01-.31-.02-.36-.04-.09-.04-.17-.1-.26-.16-.15-.1-.25-.17-.43-.26-.17-.09-.33-.17-.49-.21-.02 0-.28-.03-.28-.03-.12 0-.32.01-.63.07l-.37.07c-.13.03-.2.04-.26.04-.16 0-.31-.14-.52-.33l-.25-.22c-.12-.1-.24-.21-.34-.3-.06-.06-.12-.11-.18-.16-.16-.14-.25-.21-.27-.34-.02-.09-.02-.18-.02-.28v-.77c0-.45-.01-.92-.02-1.38-.02-.92-.03-1.76-.01-2.56 0-.1 0-.21-.01-.32s-.01-.18-.01-.26c0-.17 0-.33.02-.5.01-.12.01-.25.01-.38v-.51c0-.45 0-.96-.04-1.41 0-.04-.02-.64-.03-.67l-.01-.32h-.83l-.24.01c-.17.01-.34.01-.51.01h-.92c-.5.01-1 .02-1.49.02h-.19c-.39 0-.78.01-1.17.02-.26.01-.53.01-.79.01h-.4c-.61 0-1.14.01-1.67.03-.11.01-.22.01-.33.01h-.65c-.15 0-.3 0-.44.01-.21.01-.42.01-.63.01h-.75c-.1 0-.45.01-.45.01l-.25.01h-.49l-.83.02.01.82c0 .09 0 .19-.01.33-.06 1.27-.09 2.47-.11 3.63l-.02 1.02-.03 1.11c-.02.5-.04 1-.04 1.49-.02.93-.04 1.78-.08 2.61-.02.49-.03.98-.04 1.47-.01.38-.01.76-.03 1.14-.02.57-.03 1.15-.05 1.72-.02.8-.03 1.51-.06 2.2-.03.61-.04 1.24-.06 1.86l-.04 1.41v.52l-.01.16h-13.12c-.35 0-.8 0-1.21.03h-.14c-.12 0-.27.01-.35.03l-.16.04-.24.13c-.2.08-.48.31-.53.95-.02.13-.02.22-.02.31.05.29.17.53.36.71.15.15.31.28.49.38.14.09.27.17.34.26.06.07.11.17.21.4.07.15.13.32.17.51.18.79.5 1.34 1.01 1.72.27.23.54.38.83.55l.27.16c.18.11.33.19.47.27l.28.14c.3.15.63.32.83.51.38.37.66.88.93 1.38l.2.37c.05.08.08.17.11.26l.08.24c.11.29.21.57.31.87l.1.31c.02.06.04.12.05.18.06.28.14.56.24.91l.04.15c.11.38.21.71.32 1.03l.05.17c.05.16.1.3.16.42.27.57.83.9 1.34 1.18l.79.49c.22.13.42.24.61.36.14.09.27.23.39.35 0 0 .29.29.32.32.26.3.55.58.77.78l.08.08c.11.1.23.22.38.31.21.12.43.18.75.2.06 0 .12.01.19.01.19 0 .39-.02.58-.07s.34-.14.44-.2l.33-.18.32-.16c.14-.08.27-.19.42-.33l.44-.4c.17-.15.32-.31.47-.46.25-.26.44-.46.67-.64.22-.17.55-.35.98-.53.33-.14.63-.26.97-.29.07-.05.11-.05.16-.05z" fill="#dadbdb"/></svg>