<?xml version="1.0" encoding="utf-8"?>
<!-- Generator: Adobe Illustrator 24.0.1, SVG Export Plug-In . SVG Version: 6.00 Build 0)  -->
<svg version="1.1" id="cactus" xmlns="http://www.w3.org/2000/svg" xmlns:xlink="http://www.w3.org/1999/xlink" x="0px" y="0px"
	 width="43.74px" height="43.74px" viewBox="0 0 43.74 43.74" style="enable-background:new 0 0 43.74 43.74;" xml:space="preserve"
	>
<style type="text/css">
	.st0{fill:#DADBDB;}
</style>
<g>
	<circle class="st0" cx="8.93" cy="31.87" r="1"/>
	<circle class="st0" cx="5.93" cy="25.87" r="1"/>
	<circle class="st0" cx="5.93" cy="18.87" r="1"/>
	<circle class="st0" cx="6.93" cy="11.87" r="1"/>
	<circle class="st0" cx="36.93" cy="11.87" r="1"/>
	<circle class="st0" cx="37.87" cy="18.87" r="1"/>
	<circle class="st0" cx="37.87" cy="25.87" r="1"/>
	<circle class="st0" cx="34.87" cy="31.87" r="1"/>
</g>
<g>
	<path class="st0" d="M7.95,38.75c-0.18,0-0.37-0.07-0.53-0.21C2.71,34.58,0,28.87,0,22.87v-0.15C0.01,11.75,5.86,0.91,6.11,0.46
		C6.26,0.18,6.56,0,6.88,0c0.12,0,0.23,0.02,0.34,0.07l3.17,1.36c2.59,1.11,3.79,4.02,2.75,6.64c-1.59,3.96-2.39,8.14-2.39,12.41
		v1.4c0,3.01,1.18,5.83,3.33,7.94c2.09,2.05,4.88,3.19,7.85,3.19l0.16,0C28.1,32.89,33,27.72,33,21.47v-1
		c0-4.27-0.8-8.44-2.39-12.41c-1.04-2.61,0.16-5.53,2.75-6.64l3.17-1.36C36.64,0.02,36.76,0,36.87,0c0.32,0,0.61,0.17,0.76,0.46
		c0.25,0.46,6.09,11.32,6.11,22.26v0.15c0,5.99-2.7,11.7-7.42,15.67c-0.16,0.13-0.36,0.2-0.56,0.2l0,0c-0.26,0-0.5-0.11-0.67-0.31
		c-0.15-0.18-0.22-0.4-0.2-0.64c0.02-0.23,0.13-0.44,0.31-0.59c4.32-3.63,6.8-8.86,6.8-14.33v-0.15c-0.01-8.42-3.72-17-5.32-20.3
		l-0.21-0.43l-2.43,1.04c-1.71,0.73-2.51,2.66-1.82,4.39c1.67,4.17,2.51,8.56,2.51,13.06v1c0,7.19-5.67,13.14-12.63,13.27l-0.25,0
		c-3.38,0-6.58-1.31-9-3.69C10.37,28.62,9,25.35,9,21.87v-1.4c0-4.49,0.85-8.89,2.51-13.06c0.69-1.73-0.11-3.66-1.82-4.39L7.27,1.99
		L7.06,2.42c-1.6,3.3-5.31,11.88-5.32,20.3v0.15c0,5.48,2.48,10.7,6.8,14.33c0.18,0.15,0.29,0.36,0.31,0.59
		c0.02,0.23-0.05,0.46-0.2,0.64c-0.15,0.18-0.36,0.29-0.59,0.31L7.95,38.75z"/>
	<path class="st0" d="M21.93,43.74c-3.83,0-7.61-0.96-10.91-2.78c-0.42-0.23-0.57-0.76-0.35-1.18c0.02-0.04,0.05-0.08,0.07-0.12
		l1.5-2.01c0.52-0.7,1.42-1.13,2.33-1.13c0.38,0,0.74,0.07,1.08,0.22c1.98,0.84,4.09,1.26,6.27,1.26c2.18,0,4.28-0.42,6.27-1.26
		c0.36-0.15,0.74-0.23,1.12-0.23c0.91,0,1.75,0.42,2.29,1.14l1.5,2.01l0.06,0.09c0.12,0.22,0.15,0.46,0.09,0.68
		c-0.06,0.22-0.21,0.42-0.42,0.53C29.54,42.78,25.77,43.74,21.93,43.74z M14.54,38.25c-0.35,0-0.69,0.17-0.9,0.45l-0.9,1.21
		l0.57,0.26c2.58,1.16,5.56,1.77,8.62,1.77s6.03-0.61,8.61-1.77l0.57-0.26l-0.9-1.21c-0.21-0.28-0.54-0.45-0.9-0.45
		c-0.15,0-0.3,0.03-0.45,0.09c-2.15,0.91-4.55,1.39-6.94,1.39c-2.39,0-4.79-0.48-6.95-1.39C14.84,38.28,14.7,38.25,14.54,38.25z"/>
</g>
</svg>
