<svg id="bull" enable-background="new 0 0 43.25 37.25" height="37.25" viewBox="0 0 43.25 37.25" width="43.25" xmlns="http://www.w3.org/2000/svg"><g fill="#d3d6d6"><path d="m21.62 28c-.34 0-.62.28-.62.62v5c0 .34.28.62.62.62s.62-.28.62-.62v-5c.01-.34-.27-.62-.62-.62z"/><path d="m42.62 0c-.34 0-.62.28-.62.62v1c0 2.97-2.41 5.38-5.38 5.38h-5c-.34 0-.62.28-.62.62s.28.62.62.62h5c1.61 0 3.16-.59 4.38-1.67.13-.11.32-.13.46-.03.14.09.2.27.15.43-1.02 3-3.82 5.02-6.98 5.02h-3.76c-.06 0-.12-.01-.17-.04l-.89-.45c-.34-.17-.55-.51-.55-.89v-1c0-1.45-1.18-2.62-2.62-2.62h-10c-1.46.01-2.64 1.19-2.64 2.63v1c0 .38-.21.72-.55.89l-.89.45c-.06.03-.11.04-.17.04h-3.77c-3.16 0-5.96-2.02-6.98-5.02-.05-.16.01-.33.15-.43.14-.09.33-.08.46.03 1.22 1.08 2.77 1.67 4.38 1.67h5c.34 0 .62-.28.62-.62s-.28-.63-.63-.63h-5c-2.96 0-5.37-2.41-5.37-5.38v-1c0-.34-.28-.62-.63-.62s-.62.28-.62.62v4c0 4.76 3.87 8.62 8.62 8.62h3c.21 0 .38.17.38.38v6c0 .21.1.4.28.52l1.62 1.08c.75.5 1.26 1.26 1.44 2.15l2.35 11.77c.24 1.22 1.33 2.11 2.57 2.11h2.72c1.25 0 2.33-.89 2.57-2.11l2.35-11.77c.18-.88.69-1.65 1.44-2.15l1.62-1.08c.17-.12.28-.31.28-.52v-6c0-.21.17-.38.38-.38h3c4.76 0 8.62-3.87 8.62-8.62v-4c.01-.34-.27-.62-.62-.62zm-17.15 19.02c-.16.04-.3.14-.38.28-.09.14-.11.31-.07.47s.15.3.29.39.31.11.47.07l1.83-.46c.21-.05.43-.12.67-.22.18-.07.38 0 .47.17s.04.38-.12.48c-1.01.69-1.7 1.72-1.93 2.91l-2.35 11.77c-.13.64-.7 1.11-1.35 1.11h-2.72c-.65 0-1.22-.46-1.35-1.1l-2.35-11.77c-.24-1.19-.93-2.23-1.94-2.91-.16-.11-.21-.32-.12-.48.07-.12.2-.2.33-.2.04 0 .09.01.13.03.25.1.46.17.67.22l1.83.46c.16.04.33.02.47-.07.14-.08.25-.23.29-.39.08-.33-.12-.67-.45-.76l-1.83-.46c-1.11-.28-2.07-1.02-2.65-2.03-.03-.06-.05-.12-.05-.18v-3.1c0-.14.08-.27.21-.33l.55-.28c.76-.38 1.24-1.15 1.24-2.01v-1c0-.76.62-1.38 1.38-1.38h4c.21 0 .38.17.38.38v5c0 .34.28.62.62.62s.62-.28.62-.62v-5c0-.21.17-.38.38-.38h4c.76 0 1.38.62 1.38 1.38v1c0 .85.48 1.62 1.24 2.01l.55.28c.11.05.19.18.19.32v3.1c0 .06-.02.13-.05.18-.57 1.02-1.54 1.76-2.65 2.04z"/></g></svg>