<?xml version="1.0" encoding="utf-8"?>
<!-- Generator: Adobe Illustrator 24.0.1, SVG Export Plug-In . SVG Version: 6.00 Build 0)  -->
<svg version="1.1" id="bull_x5F_skull" xmlns="http://www.w3.org/2000/svg" xmlns:xlink="http://www.w3.org/1999/xlink" x="0px"
	 y="0px" width="43.25px" height="37.25px" viewBox="0 0 43.25 37.25" style="enable-background:new 0 0 43.25 37.25;"
	 xml:space="preserve">
<style type="text/css">
	.st0{fill:#D3D6D6;}
</style>
<g>
	<path class="st0" d="M21.62,28C21.28,28,21,28.28,21,28.62v5c0,0.34,0.28,0.62,0.62,0.62s0.62-0.28,0.62-0.62v-5
		C22.25,28.28,21.97,28,21.62,28z"/>
	<path class="st0" d="M42.62,0C42.28,0,42,0.28,42,0.62v1C42,4.59,39.59,7,36.62,7h-5C31.28,7,31,7.28,31,7.62s0.28,0.62,0.62,0.62
		h5c1.61,0,3.16-0.59,4.38-1.67c0.13-0.11,0.32-0.13,0.46-0.03c0.14,0.09,0.2,0.27,0.15,0.43c-1.02,3-3.82,5.02-6.98,5.02h-3.76
		c-0.06,0-0.12-0.01-0.17-0.04l-0.89-0.45c-0.34-0.17-0.55-0.51-0.55-0.89v-1c0-1.45-1.18-2.62-2.62-2.62h-10
		C15.18,7,14,8.18,14,9.62v1c0,0.38-0.21,0.72-0.55,0.89l-0.89,0.45C12.5,11.99,12.45,12,12.39,12H8.62c-3.16,0-5.96-2.02-6.98-5.02
		C1.59,6.82,1.65,6.65,1.79,6.55c0.14-0.09,0.33-0.08,0.46,0.03c1.22,1.08,2.77,1.67,4.38,1.67h5c0.34,0,0.62-0.28,0.62-0.62
		S11.97,7,11.62,7h-5C3.66,7,1.25,4.59,1.25,1.62v-1C1.25,0.28,0.97,0,0.62,0S0,0.28,0,0.62v4c0,4.76,3.87,8.62,8.62,8.62h3
		c0.21,0,0.38,0.17,0.38,0.38v6c0,0.21,0.1,0.4,0.28,0.52l1.62,1.08c0.75,0.5,1.26,1.26,1.44,2.15l2.35,11.77
		c0.24,1.22,1.33,2.11,2.57,2.11h2.72c1.25,0,2.33-0.89,2.57-2.11l2.35-11.77c0.18-0.88,0.69-1.65,1.44-2.15l1.62-1.08
		c0.17-0.12,0.28-0.31,0.28-0.52v-6c0-0.21,0.17-0.38,0.38-0.38h3c4.76,0,8.62-3.87,8.62-8.62v-4C43.25,0.28,42.97,0,42.62,0z
		 M25.47,19.02c-0.16,0.04-0.3,0.14-0.38,0.28c-0.09,0.14-0.11,0.31-0.07,0.47c0.04,0.16,0.15,0.3,0.29,0.39
		c0.14,0.09,0.31,0.11,0.47,0.07l1.83-0.46c0.21-0.05,0.43-0.12,0.67-0.22c0.18-0.07,0.38,0,0.47,0.17
		c0.09,0.17,0.04,0.38-0.12,0.48c-1.01,0.69-1.7,1.72-1.93,2.91l-2.35,11.77c-0.13,0.64-0.7,1.11-1.35,1.11h-2.72
		c-0.65,0-1.22-0.46-1.35-1.1l-2.35-11.77c-0.24-1.19-0.93-2.23-1.94-2.91c-0.16-0.11-0.21-0.32-0.12-0.48
		c0.07-0.12,0.2-0.2,0.33-0.2c0.04,0,0.09,0.01,0.13,0.03c0.25,0.1,0.46,0.17,0.67,0.22l1.83,0.46c0.16,0.04,0.33,0.02,0.47-0.07
		c0.14-0.08,0.25-0.23,0.29-0.39c0.08-0.33-0.12-0.67-0.45-0.76l-1.83-0.46c-1.11-0.28-2.07-1.02-2.65-2.03
		c-0.03-0.06-0.05-0.12-0.05-0.18v-3.1c0-0.14,0.08-0.27,0.21-0.33l0.55-0.28c0.76-0.38,1.24-1.15,1.24-2.01v-1
		c0-0.76,0.62-1.38,1.38-1.38h4c0.21,0,0.38,0.17,0.38,0.38v5c0,0.34,0.28,0.62,0.62,0.62s0.62-0.28,0.62-0.62v-5
		c0-0.21,0.17-0.38,0.38-0.38h4c0.76,0,1.38,0.62,1.38,1.38v1c0,0.85,0.48,1.62,1.24,2.01l0.55,0.28C29.92,12.97,30,13.1,30,13.24
		v3.1c0,0.06-0.02,0.13-0.05,0.18c-0.57,1.02-1.54,1.76-2.65,2.04L25.47,19.02z"/>
</g>
</svg>
