<svg id="horseshoe" enable-background="new 0 0 43.74 43.74" height="43.74" viewBox="0 0 43.74 43.74" width="43.74" xmlns="http://www.w3.org/2000/svg"><g fill="#dadbdb"><circle cx="8.93" cy="31.87" r="1"/><circle cx="5.93" cy="25.87" r="1"/><circle cx="5.93" cy="18.87" r="1"/><circle cx="6.93" cy="11.87" r="1"/><circle cx="36.93" cy="11.87" r="1"/><circle cx="37.87" cy="18.87" r="1"/><circle cx="37.87" cy="25.87" r="1"/><circle cx="34.87" cy="31.87" r="1"/><path d="m7.95 38.75c-.18 0-.37-.07-.53-.21-4.71-3.96-7.42-9.67-7.42-15.67v-.15c.01-10.97 5.86-21.81 6.11-22.26.15-.28.45-.46.77-.46.12 0 .23.02.34.07l3.17 1.36c2.59 1.11 3.79 4.02 2.75 6.64-1.59 3.96-2.39 8.14-2.39 12.41v1.4c0 3.01 1.18 5.83 3.33 7.94 2.09 2.05 4.88 3.19 7.85 3.19h.16c6.01-.12 10.91-5.29 10.91-11.54v-1c0-4.27-.8-8.44-2.39-12.41-1.04-2.61.16-5.53 2.75-6.64l3.17-1.36c.11-.04.23-.06.34-.06.32 0 .61.17.76.46.25.46 6.09 11.32 6.11 22.26v.15c0 5.99-2.7 11.7-7.42 15.67-.16.13-.36.2-.56.2-.26 0-.5-.11-.67-.31-.15-.18-.22-.4-.2-.64.02-.23.13-.44.31-.59 4.32-3.63 6.8-8.86 6.8-14.33v-.15c-.01-8.42-3.72-17-5.32-20.3l-.21-.43-2.43 1.04c-1.71.73-2.51 2.66-1.82 4.39 1.67 4.17 2.51 8.56 2.51 13.06v1c0 7.19-5.67 13.14-12.63 13.27h-.25c-3.38 0-6.58-1.31-9-3.69-2.48-2.44-3.85-5.71-3.85-9.19v-1.4c0-4.49.85-8.89 2.51-13.06.69-1.73-.11-3.66-1.82-4.39l-2.42-1.03-.21.43c-1.6 3.3-5.31 11.88-5.32 20.3v.15c0 5.48 2.48 10.7 6.8 14.33.18.15.29.36.31.59s-.05.46-.2.64-.36.29-.59.31z"/><path d="m21.93 43.74c-3.83 0-7.61-.96-10.91-2.78-.42-.23-.57-.76-.35-1.18.02-.04.05-.08.07-.12l1.5-2.01c.52-.7 1.42-1.13 2.33-1.13.38 0 .74.07 1.08.22 1.98.84 4.09 1.26 6.27 1.26s4.28-.42 6.27-1.26c.36-.15.74-.23 1.12-.23.91 0 1.75.42 2.29 1.14l1.5 2.01.06.09c.12.22.15.46.09.68s-.21.42-.42.53c-3.29 1.82-7.06 2.78-10.9 2.78zm-7.39-5.49c-.35 0-.69.17-.9.45l-.9 1.21.57.26c2.58 1.16 5.56 1.77 8.62 1.77s6.03-.61 8.61-1.77l.57-.26-.9-1.21c-.21-.28-.54-.45-.9-.45-.15 0-.3.03-.45.09-2.15.91-4.55 1.39-6.94 1.39s-4.79-.48-6.95-1.39c-.13-.06-.27-.09-.43-.09z"/></g></svg>