<?xml version="1.0" encoding="utf-8"?>
<!-- Generator: Adobe Illustrator 24.0.1, SVG Export Plug-In . SVG Version: 6.00 Build 0)  -->
<svg version="1.1" id="cactus" xmlns="http://www.w3.org/2000/svg" xmlns:xlink="http://www.w3.org/1999/xlink" x="0px" y="0px"
	 width="60.62px" height="59.93px" viewBox="0 0 60.62 59.93" style="enable-background:new 0 0 60.62 59.93;" xml:space="preserve"
	>
<style type="text/css">
	.st0{fill:#DADBDB;}
</style>
<path class="st0" d="M43.63,59.6c-0.36,0-0.73-0.09-1.1-0.27c-0.2-0.07-0.32-0.12-0.44-0.19l-1.31-0.56
	c-0.26-0.07-0.43-0.12-0.65-0.19c-0.1-0.03-0.21-0.07-0.32-0.09c0,0-0.54-0.13-0.63-0.15L38.63,58c-0.82-0.2-1.49-0.44-2.12-0.75
	c-0.42-0.21-0.8-0.42-1.15-0.63l-0.91-0.52c-0.19-0.11-0.36-0.23-0.6-0.4c-0.57-0.41-1.41-1.05-2.06-1.96
	c-0.37-0.52-0.62-1.12-0.81-1.61c-0.05-0.13-0.09-0.23-0.14-0.34c-0.13-0.31-0.24-0.62-0.35-0.92l-0.21-0.58l-0.37-0.22
	c-0.22-0.13-0.58-0.34-0.92-0.7c-0.17-0.18-0.33-0.38-0.49-0.59l-0.12-0.15l-0.58-0.42c-0.19-0.13-0.44-0.31-0.69-0.55
	c-0.34-0.33-0.55-0.68-0.7-0.94c-0.24-0.44-0.45-0.92-0.62-1.43c-0.13-0.41-0.28-0.88-0.39-1.39c-0.14-0.67-0.33-1.2-0.57-1.63
	c-0.35-0.63-0.48-0.76-0.54-0.81l-0.13-0.1c-0.15-0.09-0.3-0.21-0.49-0.34c-0.14-0.1-0.23-0.17-0.33-0.23
	c-0.14-0.09-0.3-0.17-0.5-0.28l-0.39-0.21c-0.27-0.15-0.48-0.27-0.68-0.33l-0.17-0.06l-0.39,0.04l-0.3,0.12
	c-0.25,0.1-0.43,0.2-0.54,0.3c-0.05,0.04-0.13,0.11-0.29,0.29c-0.23,0.25-0.44,0.46-0.69,0.68c0,0-0.31,0.28-0.43,0.39
	c-0.16,0.14-0.39,0.35-0.7,0.53c-0.14,0.09-0.29,0.16-0.47,0.25l-0.13,0.07c-0.21,0.13-0.53,0.33-1,0.44
	c-0.33,0.08-0.67,0.13-1.03,0.13c-0.11,0-0.21,0-0.32-0.01c-0.37-0.03-0.94-0.1-1.52-0.44c-0.36-0.21-0.6-0.44-0.8-0.63
	c-0.23-0.21-0.51-0.48-0.82-0.82l-1.26-0.94c-0.12-0.07-0.21-0.13-0.35-0.23l-0.16-0.09c-0.61-0.35-1.54-0.89-2.06-1.99
	c-0.11-0.24-0.18-0.45-0.24-0.61l-0.05-0.14c-0.11-0.32-0.21-0.65-0.31-1L7.7,35.95c-0.11-0.38-0.19-0.67-0.26-0.97l-0.12-0.37
	c-0.1-0.3-0.18-0.54-0.28-0.79l-0.26-0.58c-0.14-0.27-0.33-0.61-0.45-0.79l-0.07-0.1L5.47,31.9c-0.17-0.09-0.35-0.19-0.52-0.29
	l-0.29-0.17c-0.34-0.19-0.7-0.4-1.07-0.71c-0.77-0.58-1.31-1.44-1.6-2.55l-0.06-0.23L1.7,27.73c-0.17-0.12-0.32-0.26-0.47-0.41
	c-0.53-0.53-0.85-1.19-0.9-1.87c-0.02-0.28,0.01-0.5,0.02-0.67c0.08-0.8,0.39-1.47,0.92-1.95c0.17-0.16,0.36-0.29,0.61-0.42
	c0.09-0.06,0.15-0.09,0.2-0.11c0.52-0.25,1.03-0.26,1.4-0.28c0.49-0.03,0.99-0.03,1.32-0.03l11.32,0l0.02-0.81
	c0.01-0.46,0.03-0.92,0.05-1.37c0.03-0.72,0.05-1.45,0.06-2.17l0.01-0.25c0.01-0.55,0.02-1.02,0.04-1.49c0.01-0.31,0.02-0.63,0.03-1
	c0.01-0.66,0.02-1.15,0.04-1.64c0.04-0.82,0.06-1.68,0.08-2.55c0.01-0.44,0.02-0.88,0.04-1.32c0-0.07,0.04-1.02,0.04-1.31l0.02-0.91
	c0.03-1.25,0.06-2.48,0.11-3.71l0.01-0.16c-0.06-0.96,0.21-1.7,0.81-2.21c0.38-0.33,0.88-0.54,1.41-0.59
	c0.16-0.02,0.35-0.02,0.56-0.02l0.37,0c0.06,0,0.13,0,0.21-0.01c0.22-0.01,0.35-0.01,0.48-0.01l0.75,0c0.17,0,0.35,0,0.52-0.01
	c0.19-0.01,0.37-0.01,0.55-0.01l0.66,0c0.11,0,0.18,0,0.25,0c0.51-0.02,1.04-0.02,1.55-0.03c0.41,0,0.77,0,1.13-0.01l0.2,0
	c0.5-0.01,0.99-0.02,1.49-0.02l0.19,0c0.39,0,0.78-0.01,1.17-0.02l0.97,0c0.14,0,0.28,0,0.48-0.01c0.17-0.01,0.26-0.01,0.35-0.01
	c1.65,0,2.26,1.14,2.41,1.48c0.19,0.45,0.2,0.88,0.21,1.19c0.05,0.52,0.05,1.08,0.04,1.56l0,0.3c0.01,0.29,0.02,0.53-0.02,0.83
	l-0.01,0.21l0.01,0.17c0.01,0.15,0.02,0.33,0.01,0.52c-0.02,0.74-0.01,1.53,0,2.36l0.03,1.95l1-0.04c0.24,0,0.49,0.03,0.7,0.08
	c0.42,0.1,0.75,0.28,1,0.41c0.09,0.04,0.16,0.08,0.22,0.12l0.1,0.06l0.24,0.06c0.15,0.02,0.28,0.03,0.41,0.06
	c0.62,0.1,1.11,0.3,1.46,0.46l0.18,0.08l0.28-0.02c0.17-0.02,0.31-0.03,0.45-0.03c0.76,0,1.3,0.25,1.72,0.5l0.63,0.38l0.59-0.23
	c0.58-0.2,1.17-0.23,1.72-0.23l0.14,0c0.19,0,0.45,0.01,0.75,0.07c0.08,0.02,0.17,0.04,0.29,0.08l0.58,0.15l0.42-0.13
	c0.11-0.04,0.35-0.14,0.69-0.18c0.06-0.01,0.27-0.02,0.28-0.02l0.22-0.09c0.45-0.25,0.86-0.38,1.31-0.44
	c0.2-0.02,0.41-0.04,0.61-0.04c0.38,0,0.75,0.04,1.1,0.12c0.69,0.16,1.33,0.42,1.84,0.62c0.25,0.1,0.47,0.2,0.69,0.29l0.29,0.13
	c0.33,0.15,0.69,0.31,1.13,0.55l0.17,0.08c0.5,0.22,0.94,0.54,1.23,0.75l0.11,0.08c0.55,0.4,0.94,0.9,1.2,1.53
	c0.36,0.89,0.35,1.88,0.33,2.68c0,0.23-0.01,0.39,0,0.55c0,0.1,0.01,0.2,0.03,0.37c0.02,0.2,0.03,0.33,0.04,0.46
	c0.03,0.43,0.04,0.85,0.04,1.29c0,0.49,0.01,0.86,0.03,1.16l0.01,0.11l0.18,0.37c0.48,0.55,0.76,1.04,0.99,1.46l0.16,0.27
	c0.15,0.25,0.34,0.56,0.49,0.91c0.13,0.29,0.24,0.58,0.36,0.95c0.25,0.74,0.32,1.67,0.23,2.79l-0.01,0.2
	c-0.01,0.2-0.03,0.47-0.08,0.79l-0.03,0.2c0.01,0.08,0.14,0.39,0.16,0.46c0.15,0.4,0.21,0.82,0.2,1.27
	c-0.02,0.56-0.13,1.06-0.22,1.42c-0.02,0.1-0.04,0.19-0.08,0.35c-0.06,0.31-0.14,0.74-0.32,1.16c-0.21,0.52-0.55,0.9-0.78,1.14
	c-0.61,0.77-1.32,1.29-2.13,1.58c-0.35,0.12-0.74,0.21-1.16,0.26l-0.32,0.04l-0.21,0.24c-0.21,0.24-0.42,0.39-0.55,0.5
	c-0.27,0.21-0.54,0.38-0.88,0.58c-0.23,0.13-0.47,0.29-0.73,0.47l-0.43,0.3c-0.16,0.13-0.27,0.22-0.43,0.35L51.74,41
	c-0.13,0.1-0.21,0.16-0.29,0.23c-0.1,0.09-0.2,0.18-0.3,0.26c-0.17,0.13-0.35,0.26-0.6,0.43c-0.11,0.07-0.21,0.15-0.32,0.23
	c-0.19,0.14-0.37,0.29-0.54,0.43c-0.25,0.2-0.48,0.35-0.69,0.48l-0.14,0.09c-0.35,0.23-0.73,0.42-1.04,0.56l-0.31,0.16l-0.12,0.12
	c-0.22,0.24-0.45,0.47-0.7,0.69c-0.26,0.23-0.47,0.42-0.69,0.6l-0.09,0.08l-0.13,0.21c-0.05,0.11-0.1,0.2-0.14,0.29l-0.05,0.09
	l-0.04,0.23c-0.02,0.34-0.06,0.64-0.1,0.92c-0.05,0.3-0.11,0.69-0.21,1.07c-0.11,0.42-0.27,0.79-0.38,1.04
	c-0.08,0.18-0.13,0.3-0.16,0.38l-0.04,0.13c-0.01,0.26-0.02,0.41-0.01,0.51c0.01,0.09,0.02,0.18,0.04,0.29
	c0.04,0.26,0.06,0.42,0.08,0.58c0.02,0.18,0.04,0.37,0.06,0.6c0.07,0.77,0.12,1.31,0.23,1.63c0.05,0.15,0.14,0.36,0.24,0.58
	c0.12,0.27,0.22,0.48,0.31,0.7l0.06,0.15c0.09,0.22,0.2,0.49,0.29,0.79c0.11,0.37,0.24,0.96,0.17,1.68
	C46,58.59,44.95,59.6,43.63,59.6z M21.4,38.01c0.34,0,0.7,0.11,0.98,0.21c0.36,0.13,0.65,0.29,0.96,0.46l0.37,0.2
	c0.22,0.12,0.42,0.22,0.6,0.34c0.16,0.1,0.3,0.21,0.44,0.31c0.19,0.13,0.31,0.22,0.44,0.31c0.56,0.36,0.93,0.99,1.24,1.54
	c0.33,0.59,0.57,1.27,0.76,2.13c0.09,0.41,0.21,0.8,0.34,1.2c0.13,0.4,0.29,0.78,0.48,1.12c0.09,0.16,0.21,0.35,0.37,0.51
	c0.11,0.11,0.25,0.22,0.46,0.37L29,46.81c0.12,0.09,0.21,0.15,0.3,0.21c0.03,0.01,0.19,0.11,0.22,0.14c0.03,0.02,0.09,0.1,0.12,0.12
	c0.1,0.11,0.18,0.22,0.27,0.33c0.17,0.21,0.29,0.37,0.43,0.51c0.15,0.16,0.34,0.27,0.5,0.37c0.45,0.26,0.87,0.53,1.05,0.94
	c0.11,0.24,0.21,0.51,0.3,0.78c0.12,0.35,0.22,0.61,0.32,0.84c0.06,0.14,0.12,0.28,0.18,0.43c0.17,0.43,0.34,0.84,0.58,1.18
	c0.49,0.68,1.17,1.2,1.7,1.58c0.15,0.1,0.27,0.19,0.4,0.27c0.15,0.08,0.88,0.49,0.95,0.54c0.28,0.18,0.61,0.36,0.99,0.55
	c0.51,0.25,1.06,0.45,1.75,0.61c0.14,0.03,0.58,0.15,0.58,0.15l0.63,0.15c0.1,0.03,0.44,0.13,0.44,0.13
	c0.18,0.05,0.31,0.09,0.5,0.14c0.28,0.08,0.52,0.14,0.73,0.23c0.09,0.04,0.18,0.09,0.27,0.14l0.46,0.22
	c0.1,0.05,0.18,0.08,0.26,0.13l0.26,0.1l1.08,0.33l0.01-1.11c0-0.33-0.05-0.58-0.12-0.79c-0.05-0.19-0.13-0.38-0.22-0.6l-0.06-0.16
	c-0.08-0.2-0.17-0.39-0.26-0.58c-0.13-0.28-0.25-0.54-0.34-0.82c-0.17-0.54-0.24-1.25-0.3-1.93c-0.02-0.26-0.04-0.46-0.06-0.67
	c-0.01-0.12-0.03-0.24-0.05-0.36c-0.04-0.24-0.06-0.39-0.07-0.53c-0.02-0.26-0.01-0.5-0.01-0.73l0.01-0.2c0-0.05,0.02-0.11,0.08-0.3
	c0.07-0.26,0.17-0.48,0.26-0.69c0.13-0.29,0.23-0.53,0.3-0.79c0.08-0.29,0.13-0.62,0.17-0.88c0.04-0.29,0.08-0.61,0.09-0.96
	l0.01-0.27c0.02-0.1,0.09-0.28,0.19-0.44c0.15-0.23,0.22-0.4,0.28-0.57c0.05-0.12,0.08-0.21,0.13-0.3l0.09-0.11
	c0.34-0.22,0.69-0.53,1.02-0.83c0.23-0.2,0.42-0.41,0.57-0.57l0.11-0.12c0.05-0.07,0.08-0.1,0.12-0.14c0.06-0.05,0.13-0.1,0.25-0.17
	c0.16-0.09,0.32-0.17,0.47-0.25c0.39-0.19,0.66-0.33,0.91-0.49l0.12-0.08c0.21-0.13,0.37-0.24,0.53-0.37
	c0.19-0.15,0.38-0.31,0.58-0.46c0.13-0.1,0.27-0.2,0.41-0.29c0.24-0.17,0.38-0.26,0.51-0.37c0.06-0.04,0.11-0.09,0.16-0.14l0.11-0.1
	c0.11-0.08,0.64-0.5,0.67-0.52c0.08-0.06,0.16-0.13,0.23-0.19l0.36-0.27l0.27-0.18c0.28-0.19,0.58-0.39,0.88-0.57
	c0.28-0.16,0.49-0.29,0.7-0.46c0.11-0.08,0.22-0.17,0.31-0.28l0.23-0.29c0.15-0.19,0.28-0.29,0.46-0.36
	c0.24-0.09,0.49-0.15,0.76-0.17c0.38-0.03,0.7-0.09,0.97-0.19c0.46-0.16,0.89-0.47,1.2-0.87c0.07-0.1,0.15-0.18,0.22-0.25
	c0.15-0.16,0.31-0.33,0.4-0.56c0.1-0.26,0.16-0.54,0.23-0.89c0.02-0.12,0.05-0.23,0.08-0.35c0.09-0.37,0.17-0.69,0.18-1.05
	c0.01-0.29-0.05-0.47-0.09-0.58c-0.03-0.07-0.16-0.38-0.16-0.38c-0.03-0.08-0.06-0.16-0.11-0.33c-0.08-0.26-0.04-0.45,0.03-0.74
	c0.05-0.22,0.07-0.47,0.09-0.73l0.02-0.27c0.05-0.59,0.07-1.42-0.14-2.04c-0.1-0.3-0.19-0.55-0.3-0.79
	c-0.11-0.24-0.24-0.47-0.38-0.7c-0.1-0.17-0.15-0.26-0.2-0.34c-0.19-0.34-0.4-0.71-0.67-1l-0.09-0.1c-0.06-0.06-0.1-0.1-0.13-0.15
	c-0.07-0.1-0.14-0.2-0.24-0.36c-0.08-0.12-0.17-0.25-0.19-0.43l-0.01-0.14c-0.01-0.07-0.02-0.16-0.04-0.25
	c-0.01-0.06-0.02-0.13-0.03-0.2c-0.04-0.43-0.04-0.88-0.04-1.32c0-0.44-0.01-0.83-0.03-1.19l-0.03-0.36
	c-0.02-0.22-0.04-0.41-0.04-0.59l0.01-0.59c0.01-0.73,0.02-1.42-0.2-1.96c-0.13-0.33-0.3-0.54-0.57-0.73l-0.1-0.08
	c-0.3-0.21-0.58-0.42-0.96-0.58l-0.26-0.12c-0.33-0.19-0.66-0.34-0.97-0.48l-0.33-0.15c-0.21-0.1-0.39-0.18-0.62-0.27
	c-0.48-0.19-1.01-0.4-1.55-0.53c-0.21-0.05-0.44-0.08-0.67-0.08c-0.13,0-0.26,0.01-0.4,0.02c-0.37,0.04-0.65,0.21-0.88,0.36
	c-0.1,0.07-0.19,0.11-0.28,0.15l-0.16,0.08l-0.95-0.11l-0.11,0.15c-0.06,0.08-0.12,0.16-0.15,0.18c-0.14,0.06-0.2,0.08-0.25,0.09
	c-0.05,0.01-0.11,0.01-0.17,0.01c-0.06,0-0.12,0-0.17-0.01c-0.29-0.04-0.55-0.11-0.79-0.18l-0.48-0.12
	c-0.12-0.03-0.2-0.03-0.35-0.03l-0.21,0c-0.4,0-0.73,0.02-1.04,0.13c-0.13,0.05-0.26,0.1-0.4,0.17c-0.25,0.11-0.56,0.25-0.86,0.25
	c-0.07,0-0.14-0.01-0.2-0.02c-0.19-0.04-0.4-0.14-0.61-0.28c-0.19-0.12-0.43-0.27-0.66-0.41c-0.21-0.12-0.47-0.26-0.8-0.26L39.33,14
	l-0.22,0.03c-0.23,0.04-0.39,0.06-0.59,0.07l-0.37-0.15c-0.37-0.18-0.79-0.39-1.32-0.47c-0.2-0.03-0.39-0.05-0.55-0.06
	c-0.24-0.01-0.31-0.02-0.36-0.04c-0.09-0.04-0.17-0.1-0.26-0.16c-0.15-0.1-0.25-0.17-0.43-0.26c-0.17-0.09-0.33-0.17-0.49-0.21
	c-0.02,0-0.28-0.03-0.28-0.03c-0.12,0-0.32,0.01-0.63,0.07l-0.37,0.07c-0.13,0.03-0.2,0.04-0.26,0.04c-0.16,0-0.31-0.14-0.52-0.33
	l-0.25-0.22c-0.12-0.1-0.24-0.21-0.34-0.3c-0.06-0.06-0.12-0.11-0.18-0.16c-0.16-0.14-0.25-0.21-0.27-0.34
	c-0.02-0.09-0.02-0.18-0.02-0.28l0-0.77c0-0.45-0.01-0.92-0.02-1.38c-0.02-0.92-0.03-1.76-0.01-2.56c0-0.1,0-0.21-0.01-0.32
	c-0.01-0.11-0.01-0.18-0.01-0.26c0-0.17,0-0.33,0.02-0.5c0.01-0.12,0.01-0.25,0.01-0.38l0-0.51c0-0.45,0-0.96-0.04-1.41
	c0-0.04-0.02-0.64-0.03-0.67l0,0l-0.01-0.32l-0.83,0l-0.24,0.01c-0.17,0.01-0.34,0.01-0.51,0.01l-0.92,0c-0.5,0.01-1,0.02-1.49,0.02
	l-0.19,0c-0.39,0-0.78,0.01-1.17,0.02c-0.26,0.01-0.53,0.01-0.79,0.01l-0.4,0c-0.61,0-1.14,0.01-1.67,0.03
	c-0.11,0.01-0.22,0.01-0.33,0.01l-0.65,0c-0.15,0-0.3,0-0.44,0.01c-0.21,0.01-0.42,0.01-0.63,0.01l-0.75,0
	c-0.1,0-0.45,0.01-0.45,0.01l-0.25,0.01l-0.49,0l-0.83,0.02l0.01,0.82c0,0.09,0,0.19-0.01,0.33c-0.06,1.27-0.09,2.47-0.11,3.63
	l-0.02,1.02l-0.03,1.11c-0.02,0.5-0.04,1-0.04,1.49c-0.02,0.93-0.04,1.78-0.08,2.61c-0.02,0.49-0.03,0.98-0.04,1.47
	c-0.01,0.38-0.01,0.76-0.03,1.14c-0.02,0.57-0.03,1.15-0.05,1.72c-0.02,0.8-0.03,1.51-0.06,2.2c-0.03,0.61-0.04,1.24-0.06,1.86
	l-0.04,1.41c0,0.05,0,0.52,0,0.52l-0.01,0.16l-13.12,0c-0.35,0-0.8,0-1.21,0.03l-0.14,0c-0.12,0-0.27,0.01-0.35,0.03l-0.16,0.04
	l-0.24,0.13c-0.2,0.08-0.48,0.31-0.53,0.95c-0.02,0.13-0.02,0.22-0.02,0.31c0.05,0.29,0.17,0.53,0.36,0.71
	c0.15,0.15,0.31,0.28,0.49,0.38c0.14,0.09,0.27,0.17,0.34,0.26c0.06,0.07,0.11,0.17,0.21,0.4c0.07,0.15,0.13,0.32,0.17,0.51
	c0.18,0.79,0.5,1.34,1.01,1.72c0.27,0.23,0.54,0.38,0.83,0.55l0.27,0.16c0.18,0.11,0.33,0.19,0.47,0.27l0.28,0.14
	c0.3,0.15,0.63,0.32,0.83,0.51c0.38,0.37,0.66,0.88,0.93,1.38l0.2,0.37c0.05,0.08,0.08,0.17,0.11,0.26l0.08,0.24
	c0.11,0.29,0.21,0.57,0.31,0.87l0.1,0.31c0.02,0.06,0.04,0.12,0.05,0.18c0.06,0.28,0.14,0.56,0.24,0.91l0.04,0.15
	c0.11,0.38,0.21,0.71,0.32,1.03l0.05,0.17c0.05,0.16,0.1,0.3,0.16,0.42c0.27,0.57,0.83,0.9,1.34,1.18l0.79,0.49
	c0.22,0.13,0.42,0.24,0.61,0.36c0.14,0.09,0.27,0.23,0.39,0.35c0,0,0.29,0.29,0.32,0.32c0.26,0.3,0.55,0.58,0.77,0.78l0.08,0.08
	c0.11,0.1,0.23,0.22,0.38,0.31c0.21,0.12,0.43,0.18,0.75,0.2c0.06,0,0.12,0.01,0.19,0.01c0.19,0,0.39-0.02,0.58-0.07
	c0.19-0.05,0.34-0.14,0.44-0.2l0.33-0.18c0.16-0.08,0.24-0.12,0.32-0.16c0.14-0.08,0.27-0.19,0.42-0.33l0.44-0.4
	c0.17-0.15,0.32-0.31,0.47-0.46c0.25-0.26,0.44-0.46,0.67-0.64c0.22-0.17,0.55-0.35,0.98-0.53c0.33-0.14,0.63-0.26,0.97-0.29
	C21.31,38.01,21.35,38.01,21.4,38.01z"/>
</svg>
