<svg id="tower" enable-background="new 0 0 12.78 54.89" height="54.89" viewBox="0 0 12.78 54.89" width="12.78" xmlns="http://www.w3.org/2000/svg"><path d="m10.81 53.31h1.16l-2.51-33.19h2.33c.31 0 .56-.24.58-.55l.42-7.72c.01-.21-.09-.4-.26-.51l-5.56-3.65v-7.11c0-.32-.26-.58-.58-.58s-.58.26-.58.58v7.11l-5.55 3.65c-.17.11-.27.3-.26.51l.42 7.72c.02.31.27.55.58.55h2.33l-2.51 33.19h1.16l2.48-32.64h3.88zm.43-34.35h-9.7l-.11-2.06h9.92zm.17-3.21h-10.04l-.08-1.4h10.2zm.14-2.56h-10.32l-.06-1.07 5.22-3.43 5.22 3.43z" fill="#d3d6d6"/></svg>