<svg version="1.1" id="_x38_41698_xA0_Image" xmlns="http://www.w3.org/2000/svg" xmlns:xlink="http://www.w3.org/1999/xlink"
	 x="0px" y="0px" width="165.24px" height="146.68px" viewBox="0 0 165.24 146.68"
	 style="enable-background:new 0 0 165.24 146.68;" xml:space="preserve">
<style type="text/css">
	.st0-star{fill:#efb832}
</style>
<path class="st0-star" d="M116.76,89.43c5.87,17.31,11.28,33.98,17.28,51.6c0.45,1.32,1.24,2.45,1.08,3.48c-0.14,0.92-1.23,2.06-2.4,2.16
	c-1.23,0.11-2.56-0.81-3.6-1.56c-5.09-3.65-9.85-7.13-14.88-10.68c-1.04-0.74-2.05-1.38-3.12-2.04c-0.49-0.3-1.12-0.61-1.56-0.96
	c-0.27-0.22-0.37-0.52-0.6-0.72c-0.62-0.54-1.63-0.9-2.4-1.44c-0.47-0.33-0.85-0.84-1.32-1.2c-2.86-2.17-6.03-4.25-9-6.36
	c-2.21-1.56-5.12-3.42-7.68-5.16c-0.5-0.34-0.84-0.81-1.32-1.2c-0.55-0.45-2.48-1.9-3.12-1.92c-0.8-0.02-2.12,1.2-3.24,1.92
	c-11.44,7.35-22.44,14.13-34.08,21.48c-2.68,1.69-6.07,3.86-9.24,5.88c-0.94,0.59-2.22,1.55-3.48,1.32c-1.41-0.26-2.16-1.27-1.8-3
	c0.06-0.27,0.27-0.45,0.36-0.72c0.11-0.33,0.03-0.66,0.12-0.96c0.35-1.17,0.92-2.46,1.2-3.24c1.68-4.65,3.01-8.48,4.68-13.08
	c1.94-5.35,3.94-10.72,5.88-16.2c0.4-1.12,0.62-2.3,1.08-3.36c1.19-2.75,2.42-6.44,3.6-9.72c0.49-1.36,1-2.52,0.6-3.84
	c-0.53-1.75-3.98-3.48-6-4.92c-1.07-0.76-2.06-1.67-3.12-2.4C28,73.81,15.49,64.51,2.64,55.47c-1.47-1.04-2.61-1.37-2.64-3
	c-0.05-2.66,2.47-2.88,5.52-2.88c17.19,0,33.38,0,50.4,0c2.86,0,6.96,0.49,8.64-0.36c1.16-0.58,2.21-3.94,2.88-5.76
	c4.73-12.84,8.74-24.57,13.44-37.8c0.37-1.05,0.87-2.11,1.2-3.12c0.4-1.2,0.76-2.33,2.28-2.52c3.15-0.38,3.46,3.4,4.32,6
	c4.61,13.93,9.75,28.54,14.16,42.24c0.71,0.25,0.95,0.97,1.56,1.32c16.92,0,35.09,0,52.8,0c2.31,0,5.92-0.33,6.96,0.48
	c0.57,0.45,1.11,1.7,1.08,2.52c-0.04,1.15-1.36,2.25-2.4,3C147.44,66.7,131.91,78.17,116.76,89.43z"/>
</svg>
